<svg version="1.1" baseProfile="tiny" id="askalogo" 
	 xmlns="http://www.w3.org/2000/svg" xmlns:xlink="http://www.w3.org/1999/xlink" x="0px" y="0px" width="30px" height="30px" viewBox="0 0 99.6 98.2"
	 overflow="visible" xml:space="preserve">
<circle fill="#3F3D3C" cx="49.4" cy="48.5" r="47"/>
<g>
	<g>
		<g>
			<path fill="#FFFFFF" d="M44.8,76.6L44.8,76.6L44.8,76.6c0.1,0.2,0.1,0.3,0.2,0.4h0v0.1h0.1v0.1h0.1c0,0.1,0.1,0.2,0.1,0.4h0.1
				v0.2h0.1V78h0.1v0.1l0.1,0.1v0.1c0,0,0.1,0,0.1,0.1s0.1,0.2,0.1,0.4H46v0.1c0,0,0.1,0,0.1,0.1s0,0.2,0.1,0.2c0,0,0.1,0,0.1,0.1
				v0.1c0,0,0.1,0,0.1,0.1v0.1c0.1,0,0.1,0.1,0.2,0.1v0.1c0.1,0.1,0.2,0.2,0.3,0.2v0.1c0.1,0.1,0.2,0.2,0.3,0.2c0,0,0,0.1,0.1,0.1
				h0.1c0,0.1,0.1,0.1,0.1,0.2h0.1c0,0,0,0.1,0.1,0.1s0.1,0,0.2,0.1v0.1H48V81h0.1v0.1c0.1,0,0.2,0.1,0.4,0.1v0.1
				c0.1,0,0.3,0,0.4,0.1v0.1h0.3v0.1h0.2v0.1h0.3v0.1h0.2v0.1h0.2V82h0.2v0.1c0.1,0,0.2,0,0.4,0.1V82h0.1v0.1H51v0.1
				c0.1,0,0.2,0.1,0.4,0.1v0.1h0.1v0.1h0.2c0,0,0,0.1,0.1,0.1h0.1v0.1H52v0.1h0l0.1,0.1h0.1c0,0,0,0.1,0.1,0.1s0.2,0,0.2,0.1
				c0,0,0,0.1,0.1,0.1c0.3,0.1,0.7,0.3,1,0.4c0,0,0,0.1,0.1,0.1h0.1v0.1H54v0.1h0.2c0,0,0,0.1,0.1,0.1h0.1l0.1,0.1h0.1V84h0.1v0.1
				h0.1v0.1H55v0.1h0.1v0.1c0.1,0,0.2,0,0.2,0.1c0,0,0,0.1,0.1,0.1h0.2v0.1h0.1v0.1h0.1c0,0,0,0.1,0.1,0.1h0.2c0,0,0,0.1,0.1,0.1
				s0.2,0.1,0.4,0.1V85c0.1,0,0.2,0,0.2,0.1v0.1h0.1v0.1H57v0.1h0.1v0.1h0.1v0.1c0.1,0,0.2,0,0.2,0.1c0,0,0,0.1,0.1,0.1h0.1l0.1,0.1
				H58V86h0.1v0.1h0.1v0.1c0.1,0,0.2,0,0.2,0.1c0,0,0,0.1,0.1,0.1l0.2,0.1c0,0,0,0.1,0.1,0.1s0.2,0,0.2,0.1c0,0,0,0.1,0.1,0.1h0.1
				v0.1c0.1,0,0.1,0,0.2,0.1c0,0,0,0.1,0.1,0.1h0.1v0.1c0.1,0,0.1,0,0.2,0.1c0,0,0,0.1,0.1,0.1H60c0,0.1,0.1,0.1,0.1,0.2h0.1
				c0,0,0,0.1,0.1,0.1h0.1c0,0.1,0.1,0.1,0.1,0.2h0.1l0.2,0.2H61c0,0.1,0.1,0.1,0.1,0.2h0.1c0,0,0,0.1,0.1,0.1h0.1l0.2,0.2
				c0.1,0,0.1,0,0.2,0.1c0,0,0,0.1,0.1,0.1H62c0.1,0.1,0.1,0.2,0.2,0.2h0.1c0,0,0,0.1,0.1,0.1h0.1c0,0.1,0.1,0.1,0.1,0.2h0.1
				c0,0,0,0.1,0.1,0.1h0.1c0,0,0,0.1,0.1,0.1h0.1c0,0,0,0.1,0.1,0.1h0.1c0,0,0,0.1,0.1,0.1h0.1c0,0,0,0.1,0.1,0.1h0.1v0.1h0.1
				c0,0,0,0.1,0.1,0.1s0.2,0,0.2,0.1c0,0,0,0.1,0.1,0.1s0.2,0,0.2,0.1v0.1c0.1,0,0.1,0,0.2,0.1c0,0,0,0.1,0.1,0.1h0.1v0.1h0.1
				c0,0,0,0.1,0.1,0.1h0.1c0,0,0,0.1,0.1,0.1h0.1V91h0.1c0,0,0,0,0,0.1c1-0.4,2.1-0.8,3.1-1.3c-0.2-0.2-0.5-0.4-0.7-0.6
				c0-0.1-0.1-0.1-0.1-0.2h-0.1c-0.1-0.1-0.1-0.2-0.2-0.2h-0.1c0-0.1-0.1-0.1-0.1-0.2H67v-0.1c-0.1,0-0.1,0-0.2-0.1
				c0,0,0-0.1-0.1-0.1h-0.1c0-0.1-0.1-0.1-0.1-0.2h-0.1c0,0,0-0.1-0.1-0.1l-0.2-0.1v-0.1H66c0,0,0-0.1-0.1-0.1h-0.1
				c0,0,0-0.1-0.1-0.1h-0.1c0,0,0-0.1-0.1-0.1h-0.1c0,0,0-0.1-0.1-0.1h-0.1c0,0,0-0.1-0.1-0.1H65c0,0,0-0.1-0.1-0.1h-0.1
				c0,0,0-0.1-0.1-0.1h-0.1c0,0,0-0.1-0.1-0.1h-0.1c0,0,0-0.1-0.1-0.1s-0.2,0-0.2-0.1c0,0,0-0.1-0.1-0.1h0c0,0,0-0.1-0.1-0.1h-0.1
				c0,0,0-0.1-0.1-0.1s-0.2,0-0.2-0.1c0,0,0-0.1-0.1-0.1h-0.1c0,0,0-0.1-0.1-0.1s-0.2,0-0.2-0.1c0,0,0-0.1-0.1-0.1s-0.2,0-0.2-0.1
				c0,0,0-0.1-0.1-0.1l-0.2-0.1v-0.1c-0.1,0-0.1,0-0.2-0.1c0,0,0-0.1-0.1-0.1C62,85,62,85,61.9,85c0,0,0-0.1-0.1-0.1s-0.2,0-0.2-0.1
				c0,0,0-0.1-0.1-0.1s-0.2,0-0.2-0.1c0,0,0-0.1-0.1-0.1s-0.1,0-0.2-0.1v-0.1c-0.1,0-0.2-0.1-0.4-0.1c0,0,0-0.1-0.1-0.1
				s-0.2,0-0.2-0.1c0,0,0-0.1-0.1-0.1s-0.2,0-0.2-0.1c0,0,0-0.1-0.1-0.1s-0.2-0.1-0.4-0.1v-0.1c-0.1,0-0.1,0-0.2-0.1
				c0,0,0-0.1-0.1-0.1s-0.2-0.1-0.4-0.1c0,0,0-0.1-0.1-0.1S58.5,83,58.3,83c0,0,0-0.1-0.1-0.1s-0.2-0.1-0.4-0.1c0,0,0-0.1-0.1-0.1
				s-0.2-0.1-0.4-0.1c0,0,0-0.1-0.1-0.1s-0.2,0-0.2-0.1v-0.1c-0.1,0-0.2-0.1-0.4-0.1v-0.1h-0.2V82h-0.2v-0.1H56v-0.1h-0.2v-0.1h-0.3
				v-0.1h-0.2v-0.1h-0.4v-0.1h-0.4v-0.1c-0.3,0-0.5,0-0.8-0.1v-0.1h-0.2V81h-0.4v-0.1h-0.2v-0.1h-0.3v-0.1h-0.2v-0.1h-0.2v-0.1H52
				V81h-0.1v-0.1h-0.2v-0.1h-0.1v-0.1h-0.2v-0.1c-0.1,0-0.2,0-0.2-0.1v-0.1c-0.1,0-0.2,0-0.3-0.1v-0.1h-0.2v-0.1
				c-0.1,0-0.2-0.1-0.4-0.1v-0.1h-0.1v-0.1h-0.1v-0.1H50v-0.1h-0.2c0,0,0-0.1-0.1-0.1h-0.2c0,0,0-0.1-0.1-0.1h-0.1v-0.1h-0.1v-0.1
				h-0.1L49,79.1h0c0,0,0-0.1-0.1-0.1h-0.1v-0.1h-0.1l-0.1-0.1h-0.1c0,0,0-0.1-0.1-0.1l-0.2-0.1c0,0,0-0.1-0.1-0.1s-0.2,0-0.2-0.1
				c0,0,0-0.1-0.1-0.1s-0.2,0-0.2-0.1c0,0,0-0.1-0.1-0.1h-0.1c0,0,0-0.1-0.1-0.1h-0.1c0,0,0-0.1-0.1-0.1H47v-0.1
				c-0.1,0-0.1,0-0.2-0.1c0,0,0-0.1-0.1-0.1h-0.1c0,0,0-0.1-0.1-0.1h-0.1c0,0,0-0.1-0.1-0.1s-0.1,0-0.2-0.1L46,77.5h-0.1
				c0-0.1-0.1-0.1-0.1-0.2h-0.1c-0.1-0.1-0.2-0.2-0.2-0.3h-0.1l0,0C45.1,76.9,45,76.8,44.8,76.6z"/>
			<path fill="#FFFFFF" d="M57.1,78.6C57.2,78.6,57.2,78.6,57.1,78.6L57.1,78.6c-0.1-0.1-0.2-0.1-0.2-0.2v0.1
				c-0.1,0.1-0.2,0.3-0.4,0.4h-0.1V79h0.4C56.9,78.9,57.1,78.9,57.1,78.6z"/>
			<path fill="#FFFFFF" d="M20.5,82.2L20.5,82.2l0.1-0.1V82h0.2l0,0c0.1,0,0.2,0,0.2-0.1v-0.1c0.1,0,0.2,0,0.2-0.1
				c0,0,0-0.1,0.1-0.1s0.2,0,0.2-0.1c0,0,0-0.1,0.1-0.1l0.2-0.1c0-0.1,0.1-0.1,0.1-0.2H22c0-0.1,0.1-0.1,0.1-0.2h0.1
				c0.1-0.1,0.1-0.2,0.2-0.2h0.1c0.1-0.1,0.2-0.2,0.2-0.3h0.1c0,0,0-0.1,0.1-0.1s0.1,0,0.2-0.1l0.2-0.2h0.1c0,0,0-0.1,0.1-0.1h0.1
				c0-0.1,0.1-0.1,0.1-0.2h0.1c0,0,0-0.1,0.1-0.1H24v-0.1c0.1,0,0.1,0,0.2-0.1c0,0,0-0.1,0.1-0.1h0.1c0,0,0-0.1,0.1-0.1
				s0.2,0,0.2-0.1c0,0,0-0.1,0.1-0.1h0.1c0,0,0-0.1,0.1-0.1s0.2-0.1,0.4-0.1c0,0,0-0.1,0.1-0.1h0.1l0.1-0.1H26v-0.1h0.1v-0.1h0.1
				v-0.1h0.1l0.1-0.1h0.1c0,0,0-0.1,0.1-0.1s0.2,0,0.3-0.1c0,0,0-0.1,0.1-0.1h0.2v-0.1h0.1v-0.1h0.1v-0.1h0.1v-0.1
				c0.1,0,0.2-0.1,0.4-0.1v-0.1h0.2v-0.1c0.1,0,0.2-0.1,0.4-0.1V77h0.1v-0.1h0.2c0,0,0-0.1,0.1-0.1h0.2V77h0.1l0,0h0.1v-0.1h0.1
				v-0.1h0.1v-0.1h0.1v-0.1h0.1v-0.1c0.1,0,0.2-0.1,0.4-0.1c0,0,0-0.1,0.1-0.1s0.2-0.1,0.4-0.1v-0.1c0.1,0,0.1,0,0.2-0.1
				c0,0,0-0.1,0.1-0.1H31c0,0,0-0.1,0.1-0.1h0.1c0-0.1,0.1-0.1,0.1-0.2h0.1c0,0,0-0.1,0.1-0.1s0.1-0.1,0.2-0.1v-0.1h0.1
				c0.1-0.1,0.2-0.2,0.2-0.3h0.1c0.1-0.1,0.2-0.2,0.3-0.4h0.1c0-0.1,0.1-0.1,0.1-0.2h0.1c0,0,0-0.1,0.1-0.1h0.1
				c0-0.1,0.1-0.1,0.1-0.2c0.1,0,0.2,0,0.2-0.1c0,0,0-0.1,0.1-0.1s0.2-0.1,0.4-0.1v-0.1H34v-0.1h0.1v-0.1h0.1v-0.1h0.1v-0.1h0.2
				v-0.1c0.1,0,0.1,0,0.2-0.1c0,0,0-0.1,0.1-0.1h0.1c0,0,0-0.1,0.1-0.1h0.1c0,0,0-0.1,0.1-0.1s0.1,0,0.2-0.1c0-0.1,0.1-0.1,0.1-0.2
				h0.1c0-0.1,0.1-0.1,0.1-0.2h0.1c0-0.1,0.1-0.1,0.1-0.2H36c0-0.1,0.1-0.1,0.1-0.2h0.1c0.1-0.1,0.1-0.2,0.2-0.2
				c0.1,0,0.1,0,0.2-0.1c0,0,0-0.1,0.1-0.1h0.1l0.2-0.2h0.1c0-0.1,0.1-0.1,0.1-0.2h0.1c0-0.1,0.1-0.1,0.1-0.2h0.1v-0.1
				c0.1-0.1,0.2-0.1,0.2-0.2c0.1-0.5,0.2-1,0.3-1.5c0.2-0.7,0.3-1.6,0.6-2.3v-1.6c0-0.4,0-1-0.1-1.3v-0.4h-0.1v-0.2
				c-0.1,0-0.1-0.1-0.2-0.1v-0.1c-0.1-0.1-0.3-0.2-0.4-0.4V63c-0.1-0.1-0.2-0.2-0.4-0.3v-0.1c-0.1-0.1-0.2-0.2-0.3-0.2v-0.1
				c-0.1-0.1-0.2-0.2-0.3-0.2V62c-0.1-0.1-0.2-0.2-0.3-0.2v-0.1c-0.1-0.1-0.2-0.2-0.4-0.3V61c-0.1-0.1-0.2-0.2-0.3-0.2v-0.1
				c-0.1-0.1-0.2-0.1-0.2-0.2v-0.1l-0.2-0.2V60c-0.1-0.1-0.2-0.2-0.3-0.2v-0.1c-0.1,0-0.1-0.1-0.2-0.1v-0.1
				c-0.1-0.1-0.2-0.1-0.2-0.2V59c0,0-0.1,0-0.1-0.1s0-0.1-0.1-0.2h-0.1c0-0.1,0-0.2-0.1-0.2c0,0-0.1,0-0.1-0.1s0-0.1-0.1-0.2H34
				v-0.1L33.9,58v-0.1c0,0-0.1,0-0.1-0.1s0-0.2-0.1-0.2c0,0-0.1,0-0.1-0.1v-0.1h-0.1v-0.1l-0.1-0.1v-0.1c0,0-0.1,0-0.1-0.1v-0.1
				h-0.1v-0.1h-0.1v-0.1L33,56.6v-0.1c0,0-0.1,0-0.1-0.1s-0.1-0.2-0.1-0.4H33v-0.1l0,0c0-0.1-0.1-0.2-0.1-0.4h-0.1v-0.2h-0.1
				c0-0.3-0.1-0.5-0.1-0.8h-0.1v0.1c-0.1,0-0.2,0-0.3,0.1v0.1H32v0.1h-0.1V55c-0.1,0-0.2,0.1-0.4,0.1c0,0,0,0.1-0.1,0.1h-0.1
				c0,0,0,0.1-0.1,0.1h-0.1c-0.1,0.1-0.1,0.2-0.2,0.2c0,0-0.1,0-0.1,0.1v0.2h-0.1v0.1h-0.1c-0.1,0.3,0,0.4-0.3,0.4v0.1
				c-0.2,0.1-0.3-0.1-0.4-0.1v0.1h-0.1v0.1c-0.1,0-0.2,0-0.2,0.1c0,0,0,0.1-0.1,0.1h-0.1l-0.1,0.1h-0.1c0,0,0,0.1-0.1,0.1H29V57
				h-0.1v0.1c-0.1,0.1-0.1,0-0.2,0.1c-0.2-0.2-0.4,0-0.4-0.5c0.1-0.1,0.1-0.1,0.1-0.3c-0.3-0.1-0.9-0.1-1.4-0.1
				c-0.1,0.1,0,0-0.1,0.1c-0.1,0.4-0.1,0.8-0.2,1.2h-0.1v0.1c0,0-0.1,0-0.1,0.1v0.1c-0.1,0.3-0.2,0.2-0.2,0.6
				c-0.2,0-0.3-0.1-0.5-0.2c0-0.3-0.1-0.6-0.1-0.9h0.1c0-0.1,0.1-0.5,0.1-0.5h-0.1c-0.1-0.2-0.5-0.6-0.8-0.5v0.1h-0.2v0.1
				c-0.7,0-1.5,0.1-2.2,0.1c-0.1,0.2-0.2,0.2-0.2,0.4c0.2,0.1,0.2,0.3,0.2,0.6c-0.1,0-0.3,0.2-0.4,0.2V58h-0.1
				c-0.1,0.1-0.2,0.2-0.2,0.3c-0.1,0-0.1,0-0.2,0.1s-0.1,0.2-0.2,0.2h-0.6c-0.1-0.1-1-0.2-1.3-0.2c0,0.2,0.1,0.2,0.2,0.4h-0.1
				c-0.1,0.1-0.2,0.2-0.2,0.3h-0.1V59c-0.1,0.1-0.2,0.1-0.2,0.2v0.1c-0.1,0-0.1,0.1-0.2,0.1v0.1h-0.1v-0.6c0.1-0.1,0.2-0.6,0.2-0.8
				H19c-0.1,0.1-0.1,0.1-0.2,0.1v0.1h-0.1l-0.2,0.2h-0.1v0.1H18v0.1h-0.2v0.1h-0.2c-0.1,0.1-0.1,0.2-0.2,0.2h-0.1v0.1
				c0,0-0.1,0-0.1,0.1s0,0.2-0.1,0.2c0,0-0.1,0-0.1,0.1s0,0.2-0.1,0.2h-0.1c0,0.1,0,0.2-0.1,0.2h-0.1v0.2h-0.1v0.2h-0.1v0.1
				c-0.1,0.2-0.2,0.3-0.4,0.4c0,0,0,0.1-0.1,0.1h-0.4c-0.1-0.2-0.2-0.2-0.3-0.3v-0.1h-0.1v-0.1H15v-0.2c0,0-0.1,0-0.1-0.1
				c-0.2-0.2-0.3-0.3-0.6-0.3c0,0.1-0.1,0.2-0.1,0.2h-0.1c0,0,0,0.1-0.1,0.1h-0.1v0.1H14v0.1h-0.2v0.1c-0.2,0.1-0.5,0-0.6-0.1
				c-0.2-0.1-0.5,0-0.7,0.1c0,0.1,0,0.2-0.1,0.3h-0.1c-0.1,0.3,0.1,0.7,0.1,0.9c0.1,0,0.1,0,0.2,0.1v0.1c0.2,0.1,0.4-0.1,0.6,0.1
				c0.2,0.1,0.2,0.4,0.2,0.7c-0.1,0-0.1,0.1-0.1,0.1h-0.1v0.1H13v0.1h-0.6V63h-0.1v0c-0.3,0.1-1,0-1.2-0.1c-0.1-0.1-0.2-0.3-0.2-0.4
				v-0.3H11c0.1-0.2,0-0.4-0.1-0.5c-0.1,0-0.3-0.1-0.4-0.1c0,0.2-0.1,0.9-0.2,1.1c-0.1,0.6-0.8,0.8-1.6,0.8c0-0.4,0.3-0.5,0.5-0.7
				c-0.2-0.1-0.6-0.1-0.7-0.2v-0.1c0,0-0.1,0-0.1-0.1c-0.1-0.1-0.1-0.3-0.1-0.4c0.1-0.1,0,0,0.1-0.1c-0.1-0.1-0.1,0-0.1-0.1
				c-0.1,0-0.1,0-0.1,0.1c-0.7,0.2-0.2,0.9-0.9,0.9c-0.1-0.1,0,0-0.1-0.1c0-0.2-0.1-0.3-0.2-0.4c-0.1-0.3-0.1-0.8-0.1-1.2
				c-0.1,0-0.2,0-0.4,0.1V61c-0.1,0-0.2,0-0.4,0c2.4,8.4,7.2,15.8,13.6,21.5C19.9,82.4,20.2,82.3,20.5,82.2z"/>
			<path fill="#FFFFFF" d="M83.8,19.2c-0.2-0.2-0.4-0.5-0.6-0.7c-0.2,0.1-0.3,0.4-0.3,0.7l0.2,0.1v0.1h0.3v0.1
				C83.6,19.4,83.7,19.3,83.8,19.2z"/>
			<path fill="#FFFFFF" d="M6.7,57.9C6.7,57.9,6.7,57.8,6.7,57.9c0.2-0.2,0.4-0.3,0.5-0.5v-0.1c0.1,0,0.1-0.1,0.2-0.1
				c0,0.6,0.3,1.1,0.7,1.2v0.1c0.1,0.1,0.4,0,0.4-0.1s0.1-0.1,0.1-0.1v-0.1c0,0,0.1,0,0.1-0.1v-0.2c0.1-0.2,0.2-0.3,0.2-0.5
				c0.7,0,1.3-0.1,1.9-0.1c0.1-0.1,0.1-0.2,0.2-0.2h0.1c0-0.1,0.1-0.2,0.1-0.4h0.1c0-0.2,0-0.3,0.1-0.5l0.2-0.1
				c0-0.1,0.1-0.1,0.1-0.2h0.1c0,0,0-0.1,0.1-0.1l0.2-0.1c0-0.1,0.1-0.1,0.1-0.2c0.4-0.3,0.7-0.5,0.7-1.2c-0.1,0-0.2-0.2-0.2-0.2
				c-0.5,0-1-0.1-1.5-0.1c0-0.4,0-0.8-0.1-1.2H11c-0.1,0.1-0.2,0.2-0.2,0.4c0,0-0.1,0-0.1,0.1s0,0.2-0.1,0.2h-0.1v0.2
				c0,0-0.1,0-0.1,0.1c-0.2,0.2-0.3,0.3-0.7,0.2v0c-0.1,0-0.1,0-0.2-0.1c0,0,0-0.1-0.1-0.1l0,0c0-0.2-0.1-0.4-0.1-0.6
				c0,0-0.1,0-0.1-0.1V53c0,0-0.1,0-0.1-0.1c-0.1-0.1-0.3-0.3-0.4-0.5c-0.2-0.1-0.5-0.4-0.6-0.6c0.1,0,0.2-0.1,0.4-0.1v-0.1h0.2
				v-0.1h0.1v-0.1H9v-0.1h0.1v-0.1l0.2-0.1c0-0.2,0-0.3,0.1-0.5c-0.4-0.1-1-0.4-1.2-0.7C8,50.1,8,50,7.8,49.8v-0.4H8v-0.1
				c-0.1,0-0.1,0-0.2-0.1c0,0,0-0.1-0.1-0.1H7.6c0-0.1-0.1-0.1-0.1-0.2H7.3c0,0,0-0.1-0.1-0.1H7.1L7,48.6H6.8c0-0.1-0.1-0.1-0.1-0.2
				c-0.2-0.2-0.4-0.1-0.4-0.5c0.3-0.3,0.5-0.6,0.8-0.9H8v0.1h0.5c0.3,0.1,0.7,0.2,1.1,0.2c0,0.2,0,0.1-0.2,0.2c0,0.2,0,0.1,0.2,0.2
				c0.1,0.1,0.8,0.2,1.1,0.2c0.2-0.3,0.5-0.6,0.8-0.7h0.2v-0.1h0.5v0.1h0.2v0.1h0.2v0.1c0.1,0,0.2,0,0.2,0.1v0.1h0.4v0.1h1.2
				c0.3,0,0.5,0,0.8,0.1v-0.1c0.2-0.1,0.2-0.2,0.4-0.2v-0.1h0.1V47h-0.1c-0.2-0.1-0.3-0.3-0.5-0.4v-0.1h-1.4v-0.1h-0.4v-0.1h-0.2
				v-0.1h-0.2v-0.1c-0.2-0.1-0.2,0-0.3-0.2h-0.1c-0.1-0.1,0.3-0.9,0.3-1h0.1c0.1-0.2,0-0.4,0.1-0.6v-0.1h0.2c0.2,0.2,0.5,0.3,1,0.2
				c-0.1-0.3-0.3-0.6-0.4-0.9v-0.6c0.2-0.2,0.2-0.5,0.7-0.6c0.1,0.1,0.2,0.2,0.3,0.4h0.1v0.1c0.2,0.2,0.6,0.4,1,0.4v-0.1
				c-0.2-0.1-0.2-0.9-0.1-1.1h0.1v-0.1H16c0-0.1,0-0.1,0.1-0.2c0.2-0.1,0.3-0.1,0.6-0.1c0.1,0.2,0.3,0.2,0.4,0.4v0.1
				c0.1,0,0.1,0.1,0.2,0.1c0,0.1,0,0.1,0.1,0.2c0.1,0,0.2,0,0.2,0.1v0.1l0.2,0.1V43H18v0.1c0.1,0,0.2,0,0.2,0.1v0.1h0.2v0.1h0.1v0.1
				h0.2c0.5,0.2,0.9,0.5,1.6,0.5c0-0.1,0.1-0.2,0.1-0.4c-0.2-0.1-0.1-0.3-0.2-0.5H20v-0.2l0,0v-0.2h-0.1v-0.2h-0.1v-0.1h-0.1v-0.5
				c0.1-0.2,0.4-0.5,0.2-0.8H20c0-0.1,0-0.2-0.1-0.2c-0.1-0.1-0.5-0.3-0.6-0.3h-0.2c0-0.1,0-0.1-0.1-0.2h0c0-0.1,0-0.1,0.1-0.2
				c0.1-0.1,0.2-0.1,0.2-0.2v-0.1c0.1,0,0.2,0,0.3-0.1v-0.1h0.9v-0.1h0.3v-0.1h0.3v-0.1h0.2v-0.1h0.2v-0.1c0.1,0,0.2,0,0.4-0.1V39
				c-0.2,0-0.5-0.1-0.7-0.1c-0.1-0.1-0.1-0.2-0.2-0.3c-0.1,0-0.2,0-0.3,0.1v-0.1c-0.2-0.2-0.4-0.3-0.6-0.5V38
				c-0.1,0-0.1-0.1-0.2-0.1v-0.1c-0.1,0-0.1-0.1-0.2-0.1c0-0.1,0-0.2-0.1-0.2c0,0-0.1,0-0.1-0.1c-0.1-0.2-0.3-0.5-0.3-0.7h0.2
				c0.1,0.2,0.1,0,0.2,0.1s0.1,0.2,0.2,0.2H20c0,0.1,0.1,0.1,0.1,0.2h0.7c0.1-0.1,0.1-0.1,0.2-0.1c0.1-0.2,0.2-0.3,0.3-0.4v-0.1
				c-0.4-0.4-0.7-0.7-1.1-1.1h-0.1c0,0,0-0.1-0.1-0.1s-0.2,0.1-0.4,0c0-0.1-0.1-0.1-0.1-0.2h-0.1v-0.1c-0.1,0-0.1-0.1-0.2-0.1v-0.1
				h-0.1v-0.2H19V34h-0.1c0-0.1,0-0.2-0.1-0.2c-0.5-0.1-0.5-0.3-0.5-0.8c0.1-0.2,0.2-0.5,0.2-0.7c0.1,0,0.1-0.1,0.2-0.1
				c0.4,0.1,0.6,0.3,0.9,0.5c0,0.1,0.1,0.1,0.1,0.2h0.1c0.1,0.1,0.2,0.2,0.2,0.3h0.1v0.1c0,0,0.1,0,0.1,0.1v0.4h0.1v0.5
				c0.2,0.1,0.1,0.1,0.4,0.1c0-0.1,0.1-0.2,0.2-0.2c0-0.1,0-0.3,0.1-0.4h0.2c0,0.1,0.2,0.2,0.2,0.3c0,0.3,0,0.6,0.1,0.9h-0.1v0.4
				c0,0.1-0.3,0.5-0.2,0.7h0.1v0.2h0.1c0,0.1,0,0.2,0.1,0.2h0.1v0.1H22c0.2,0.3,0.2,0.4,0.5,0.6V37h0.1c0.1-0.1,0-0.2,0.1-0.2h0.1
				c0-0.1,0.1-0.1,0.1-0.2H23v-0.1c0.3,0,0.6,0,0.9,0.1v0.1h0.2c0,0,0,0.1,0.1,0.1h0.1v0.1c0.2,0.1,0.8-0.1,0.9-0.2
				c0.1-0.1,0.2-0.3,0.4-0.4h0.1c0.1-0.1,0-0.2,0.1-0.3c0-0.2-0.1-0.3-0.2-0.4v-0.2c-0.1,0-0.1,0-0.2-0.1v-0.1h-0.3v-1.7h0.1
				c0-0.1,0-0.2,0.1-0.3h0.2c0.1,0.2,0.2,0.4,0.4,0.6H26c0.2,0.1,0.4,0,0.6,0c0.7,0,1.4,0.1,1.6-0.4c-0.2-0.1-0.5-0.4-0.6-0.6
				c-0.8,0-1,0.4-1.8,0.4c-0.1-0.1,0-0.1-0.2-0.1c0-0.2,0-0.1-0.2-0.2c-0.2-0.2-0.4,0-0.7-0.1c-0.1,0-0.5-0.2-0.6-0.2
				c-0.2,0-0.7,0.3-0.9,0.2v-0.1H23v-0.1h-0.1c-0.2-0.1-0.3-0.2-0.5-0.2c0.1-0.5,0.6-0.7,0.6-1.4c-0.2-0.1,0-0.1-0.1-0.3h-0.1
				c-0.2-0.3-0.3-0.5-0.8-0.5v0.1c-0.1,0-0.1,0-0.2,0.1c0,0.1-0.1,0.1-0.1,0.2h-0.1v0.1c-0.2,0.1-0.3,0.2-0.4,0.4h-0.1v-0.2h0.1
				c0,0,0.1-0.8,0.1-0.9h-0.1c-0.1-0.3-0.3-0.3-0.4-0.5c0-0.1,0-0.1-0.1-0.2c-0.1,0-0.1-0.1-0.2-0.1c0-0.1,0-0.1-0.1-0.2
				s-0.3,0-0.4-0.1c0,0,0-0.1-0.1-0.1c-0.2-0.2-0.5-0.4-0.6-0.7c0.2-0.1,0.6-0.4,0.8-0.3v0.1h0.1c0,0,0,0.1,0.1,0.1h0.1
				c0,0.1,0.1,0.1,0.1,0.2c0.1,0,0.2,0.1,0.4,0.1v-0.1c0.2-0.1,0.4-0.2,0.5-0.3h0.1v-0.1h0.1v-0.1h0.1v-0.2h0.1
				c0.1-0.1,0.1-0.1,0.3-0.1c0.1,0.1,0.2,0,0.3,0.1c0,0,0,0.1,0.1,0.1h0.2c0,0.1,0.1,0.1,0.1,0.2h0.1c0,0,0,0.1,0.1,0.1l0.2,0.1v0.1
				c0.1,0.1,0.1,0.1,0.2,0.1c0.1,0.3,0.2,0.6,0.3,0.9v0.4h0.1v0.6h0.1v0.1c0.2,0.1,0.2,0.2,0.4,0.2c0.1-0.1,0,0,0.1-0.1
				c0.2-0.3,0.4-0.4,0.4-0.9c-0.1-0.1-0.2-1-0.2-1.3c0.3,0,0.7,0,1,0.1V28h0.3c0-0.1,0.1-0.1,0.1-0.1v-0.1l0,0c0-0.1,0-0.2-0.1-0.4
				h-0.1c0-0.3,0-0.6-0.1-0.9c0-0.1,0.2-0.5,0.1-0.7c0,0-0.1,0-0.1-0.1v-0.1c0,0-0.1,0-0.1-0.1v-0.1c0,0-0.1,0-0.1-0.1v-0.1
				c-0.1,0-0.1-0.1-0.2-0.1c0-0.1,0-0.2-0.1-0.2s-0.1-0.1-0.2-0.1v-0.2h0c0-0.3,0.1-0.6,0.1-0.9h0.1c0.1-0.3-0.1-0.5-0.1-0.7
				c-0.1-0.2,0-0.3,0.1-0.4s0.2-0.1,0.2-0.2v-0.1h0.1c0,0,0-0.1,0.1-0.1s0.2,0,0.3-0.1V22c0.2-0.1,0.3-0.1,0.4-0.2
				c0-0.4,0-0.7,0.1-1.1h-0.1v-0.2h-0.1v-0.2h-0.1c0-0.1,0-0.2-0.1-0.3l0,0v-0.1l0,0v-0.1h-0.1v-0.1h-0.7c-0.2,0.1-0.6,0-0.8-0.1
				c0-0.5-0.1-0.9-0.2-1.2c-0.1-0.2,0-0.3-0.1-0.4c0,0-0.1,0-0.1-0.1v-0.1c0,0-0.1,0-0.1-0.1c-0.2-0.2-0.4-0.3-0.4-0.6
				c0.1-0.1,0,0,0.1-0.1h0.1c0.1-0.2,0.2-0.3,0.2-0.5c0.3,0,0.7-0.1,1,0.1c0,0.1,0.1,0.1,0.1,0.2h0.1c0.1,0.2,0,0.4,0.1,0.5h0.2
				c0,0,0.5-0.3,0.6-0.2v0.1c0.2,0,0.2,0.1,0.4,0.1V18c0.6,0,0.7,0.3,1.3,0.1c0-0.1,0-0.1,0.1-0.2c0.2,0,0.5-0.3,0.7-0.2v0.1
				c0.2,0.1,0.2,0.1,0.4,0.2c0.1-0.5,0.5-0.6,0.8-0.9c0,0,0-0.1,0.1-0.1h0.1c0,0,0-0.1,0.1-0.1c0.1-0.1,0.3-0.3,0.6-0.3
				c0.1,0.1,0.1,0.2,0.2,0.2h0.1c0,0.1,0,0.2,0.1,0.2l0.1,0.1H31v0.1c0.3-0.1,0.7-0.3,1-0.4v-0.1c0.1,0,0.1,0,0.2-0.1
				c0,0,0-0.1,0.1-0.1h0.4c0.2,0.3,0.6,0.3,1,0.2c0-0.1,0-0.4,0.1-0.6c0.1-0.4,0.6-0.7,1.1-0.7c0.2,0.2,0.4,0.4,0.6,0.6H36v-0.1h0.3
				c0-0.1,0-0.1,0.1-0.2c-0.1-0.1-0.2-0.5-0.2-0.6c0.1-0.1,0,0,0.1-0.1c0.2,0,0.4-0.1,0.7,0v0.1h0.1v0.1c0.1,0.1,0.1,0.1,0.2,0.1
				c0.1,0.3,0.3,0.3,0.3,0.6c-0.1,0.1-0.3,0.2-0.3,0.4c0.3,0,0.6-0.1,0.8,0c0,0,0,0.1,0.1,0.1h0.1c0.1,0.1,0.2,0.2,0.2,0.3h0.2
				c0,0,0,0.1,0.1,0.1s0.2,0,0.3,0.1c0.1-0.1,0.1,0,0.2-0.2h0.1c0-0.3,0.1-0.6,0.1-0.9h-0.1c0-0.1,0-0.2-0.1-0.2s-0.1,0-0.2-0.1
				v-0.1H39v-0.1c0.2-0.2,0-0.5,0.1-0.7c0-0.1,0.1-0.3,0.2-0.4c0.4,0,0.8,0,1.2,0.1c0.2,0.1,0.4,0.1,0.6,0.2
				c0.2,0.3,0.3,0.6,0.7,0.7c0.1-0.3,0.2-0.4,0.3-0.6h0.1c0.2-0.3,0.4-0.2,0.5-0.5h0.1V14h-0.1c-0.1-0.1-0.4-0.1-0.6-0.1
				c0-0.2-0.1-0.4-0.2-0.6v-0.4H42v-0.4h-0.1c0-0.1,0-0.2-0.1-0.2c-0.2-0.1-0.4-0.3-0.7-0.3c0.1-0.2,0.3-0.3,0.4-0.5
				c0.2,0.1,0.5,0.2,0.7,0.2v0.1h0.2c0,0,0,0.1,0.1,0.1h0.1c0,0,0,0.1,0.1,0.1h0.1c0,0,0,0.1,0.1,0.1c0.2,0.1,0.4,0.2,0.7,0.2
				c0-0.1,0.1-0.1,0.1-0.1v-0.4c0,0,0.1,0,0.1-0.1c0.1-0.1,0.2-0.2,0.3-0.4c0.3,0.1,0.5,0.2,0.8,0.4c-0.1,0.3,0,0.4,0,0.6
				c0.2,0,0.4,0,0.6-0.1c0-0.1,0.1-0.1,0.1-0.3c-0.1-0.1-0.3-0.4-0.3-0.6c0.4,0,0.8,0.2,1.2,0.3c0.1,0.1,0.1,0.2,0.2,0.2h0.1V12h0.1
				v0.1H47v0.1h0.1v0.2h0.1v0.1H47c0,0.1,0,0.1,0.1,0.2c0.1,0,0.3,0,0.4,0.1v-0.1h0.2c0,0,0-0.1,0.1-0.1h0.1v-0.1H48v-0.1h0.2v-0.1
				h0.1v-0.1c0.3-0.1,0.6,0.1,0.8,0.1c0,0.1,0,0.1,0.1,0.2h-0.1v0.1c-0.1,0.1-0.2,0-0.3,0.3c0.2,0.1,0.4,0.4,0.4,0.7
				c-0.1,0-0.2,0.1-0.4,0.1c-0.1-0.1,0,0-0.1-0.1v-0.1c-0.2,0.1-0.4,0.1-0.6,0.2v0.1c-0.1,0-0.3,0-0.4,0.1V14h-0.1v0.2h0.1v0.1h0.1
				c0.1,0.2,0.2,0.3,0.2,0.6c-0.1,0-0.2,0-0.4-0.1c0,0,0-0.1-0.1-0.1h-0.1c-0.1,0-0.3-0.4-0.4-0.3v0.1h-0.1c0,0.1,0,0.1-0.1,0.2
				c0,0-0.1,0-0.1,0.1v0.1c0,0-0.1,0-0.1,0.1v0.1h-0.1c0,0.1-0.1,0.3-0.1,0.3h-0.2c-0.1-0.1,0,0-0.1-0.1v-0.1
				c-0.2-0.1-0.1-0.1-0.4-0.1c-0.1,0.1-0.2,0.2-0.4,0.2c0,0.1,0,0.1-0.1,0.2h0.5v-0.1h0.4c-0.1,0.2-0.2,0.3-0.2,0.5h-0.1
				c-0.1,0.4-0.4,0.3-0.5,0.8c0.1,0,0.1,0.1,0.2,0.1c-0.3,0-0.4,0.2-0.7,0.2c0,0.1,0,0.1-0.1,0.1c0,0.1,0.1,0.2,0.1,0.4
				c0.3,0.1,0.6,0.3,1.1,0.3c0-0.1,0.1-0.1,0.1-0.1c0-0.1,0-0.2,0.1-0.3h0.1v-0.2h0.1v-0.1h0.1c0-0.1,0-0.2-0.1-0.4
				c0.2,0,0.4-0.2,0.6-0.2c0-0.2,0.1-0.3,0.1-0.5c0.2-0.1,0.4-0.1,0.6-0.2h0.9c0,0.1,0,0.1,0.1,0.2h0.1v0.1h0.1
				c0.1,0.2,0,0.2,0.1,0.3c0.2-0.2,0.3-0.1,0.6-0.2v-0.1h0.1V16h0.1c0.2-0.1,0.3-0.2,0.5-0.2V16c-0.3,0-0.5-0.1-0.6-0.4
				c0.1-0.1,0-0.1,0.2-0.2c0.1-0.1,0.4,0,0.6-0.1c0.5-0.1,1.1,0,1.6,0.1c0,0.1,0,0.2-0.1,0.2h-0.1v0.2h-0.1c0,0.2,0,0.3-0.1,0.5
				h-0.1v0.2h-0.1c-0.1,0.2-0.1,0.6,0,0.7h0.1v0.1h0.1v0.1c0,0,0.1,0,0.1,0.1c0.1,0.1,0.1,0.2,0.2,0.2H52V18c0.1,0.1,0.1,0,0.2,0.1
				c0.3,0,0.4,0.1,0.7,0c0-0.2,0.1-0.2,0.1-0.4c-0.3-0.2-0.3-0.7-0.3-1.2v-0.4c-0.1-0.2-0.2-0.4-0.4-0.6h-0.1c0,0,0-0.1-0.1-0.1H52
				c0-0.1-0.1-0.1-0.1-0.2h-0.1v-0.6c0,0-0.1,0-0.1-0.1c-0.2-0.2-0.2-0.2-0.2-0.6c0.2-0.2,0.1-0.4,0.5-0.4c0.1,0.1,0.3,0.1,0.4,0.2
				c0.1,0.1,0.1,0.2,0.2,0.2h0.1V14h0.1v0.1H53v0.1c0.4,0.1,0.8-0.1,1.1,0.1c0.2,0.2,0,0.4,0.4,0.5c0.2,0.1,0.8,0.1,1.1,0.1
				c0.1-0.1,0.1-0.1,0.2-0.3c0.1-0.1,0.2-0.3,0.1-0.5h-0.1V14h-0.1v-0.5h-0.1c0-0.4,0-0.7,0.1-1.1c0-0.1,0.1-0.3,0.2-0.4
				c0.3-0.1,0.5-0.4,0.9-0.4c0.1,0.1,0,0,0.1,0.1c0,0.1,0.1,0.4,0.1,0.5c0.1,0.5,1,1,1.7,1V13h0.1c0.1,0.1,0.1,0.1,0.2,0.1v0.1h0.1
				v0.1h0.1v0.1c0.3,0.1,0.7-0.1,1-0.1v-0.1h-0.1c0-0.1,0-0.2-0.1-0.3h-0.1v-0.2h-0.1v-0.1c-0.1,0-0.1-0.1-0.2-0.1v-0.2
				c0.3,0,1-0.2,1.3-0.1V12c0.1,0,0.2,0,0.2,0.1c0.1,0.1,0.2,0.3,0.2,0.4c0.1,0.2-0.1,0.4,0.1,0.6c0.1,0.1,0.4,0,0.5,0.1v0.1
				c0.3,0.2,0.5,0.7,0.5,1.1c-0.1,0-0.2,0.2-0.2,0.2h-0.3v0.1h-0.1v0.1c-0.1,0-0.1,0-0.2,0.1c-0.1,0.2-0.2,0.2-0.2,0.4
				c0.2,0,0.5,0.3,0.6,0.4v0.1c0,0,0.1,0,0.1,0.1v0.2h0.1V16c0.1,0.1,0.2,0.1,0.3,0.1c0.1-0.1,0.2-0.3,0.4-0.4h0.4
				c0.1,0.1,0.1,0.1,0.2,0.1c0,0,0,0.1,0.1,0.1h0.1c0,0,0,0.1,0.1,0.1c0.1,0.1,0.2,0.2,0.3,0.2c0,0.1,0.1,0.2,0.1,0.4
				c0.1,0,0.1,0.1,0.2,0.1v0.1h0.1v0.1c0.1,0.1,0.2,0.1,0.4,0.2v0.1c-0.3,0-0.9,0.3-1.1,0.2c-0.1,0-0.3-0.1-0.4-0.2v-0.1
				c-0.1,0-0.2,0-0.4-0.1c-0.1,0.1-0.1,0.1-0.2,0.1v0.1h-0.2v0.1c-0.1,0-0.2,0-0.2,0.1v0.1c-0.1,0.1-0.4,0-0.4,0.1v0.2
				c0.1,0.1,0.1,0.1,0.2,0.2c-0.3,0.1-0.4,0.3-0.8,0.3c0-0.3-0.4-0.3-0.8-0.4v0.7c-0.1,0-0.2,0.1-0.4,0.1v0.1
				C60.1,18.9,60,19,59.8,19v0.1h-0.1c0,0.1,0,0.1-0.1,0.2h-0.1v0.1c0,0-0.1,0-0.1,0.1l-0.1,0.2h-0.1V20c0.2,0,0.4,0,0.6,0.1
				c0,0.1,0.1,0.1,0.1,0.2H60v0.1c0.3,0.1,0.6,0.1,0.9,0.2c0.2,0,0.6,0.1,0.7,0c0.3-0.1,0.2-0.3,0.4-0.4h0.2v-0.1h0.2V20h0.1l0,0
				h0.1c0,0,0-0.1,0.1-0.1s0.2,0,0.2-0.1c0,0,0-0.1,0.1-0.1h0.1c0-0.1,0.1-0.1,0.1-0.2h0.1v-0.1c0.3,0,0.6,0,0.9-0.1v-0.1h0.6v-0.1
				c0.1,0,0.2,0,0.4-0.1c0-0.1,0.1-0.2,0.1-0.4h-0.1v-0.1h0.1v-0.2c0.1-0.1,0.2-0.3,0.4-0.4H66c0-0.1,0.1-0.1,0.1-0.2h0.2v-0.1h0.1
				c0-0.1,0.1-0.1,0.1-0.2h0.1v-0.1h0.1v-0.1h0.1V17h0.1v-0.3c0.1,0,0.1-0.1,0.2-0.1c0-0.1,0-0.1,0.1-0.2h0.1v-0.1h0.1v-0.1h0.1V16
				h0.1c0.1-0.2-0.1-0.1,0.1-0.2v-0.1h0.1v-0.1H68v0.1h0.1c0,0.2-0.2,0.5-0.1,0.9l0,0v0.2h0.1V17c0.1,0.2,0.2,0.2,0.2,0.4h0.1v0.1
				h0.2c-0.1,0.3-0.2,0.7-0.3,1h-0.1v0.1h-0.1c0,0.4,0,0.8-0.1,1.2c0.1,0.2,0,0.2,0,0.2v0.1h-0.1v0.1c-0.2,0.1-0.4-0.1-0.6,0.1
				c0.1,0.2,0.1,0.4,0.2,0.6c0.1,0,0.2,0,0.4-0.1C68,21,68,21.2,68,21.4h-0.1v0.4c0.1,0,0.1,0.1,0.2,0.1V22c0.2,0,0.5,0.1,0.7,0.1
				v0.1H69v0.1c0,0,0.1-0.1,0.2-0.1v-0.1h0.2c0,0,0-0.1,0.1-0.1h0.1c0,0,0-0.1,0.1-0.1h0.1c0.1-0.1,0.2-0.2,0.2-0.3h0.1
				c0,0,0-0.1,0.1-0.1h0.1v-0.1c0.1,0,0.1-0.1,0.2-0.1v-0.1h0.1c0.1-0.1,0.2-0.7,0.1-1h-0.1v-0.3c0,0-0.1,0-0.1-0.1v-1.1h-0.1v-0.1
				h-0.1v-0.1h-0.1c0-0.1,0-0.1-0.1-0.2H70c0-0.2-0.1-0.2-0.2-0.3h-0.1c-0.1-0.2-0.2-0.3-0.2-0.6c0.1-0.1,0,0,0.1-0.1
				c0.1,0,0.1,0,0.2-0.1c0,0,0-0.1,0.1-0.1H70c0,0,0-0.1,0.1-0.1l0.2-0.1v-0.1h0.4v-0.1c0.2-0.1,0.9,0.1,1,0.1
				c0,0.1,0.1,0.1,0.1,0.2h0.1v0.1c0.1,0,0.1,0.1,0.2,0.1c0,0,0,0.1,0.1,0.1s0.2,0,0.4,0.1c0,0,0,0.1,0.1,0.1h0.1v0.1
				c0.1,0.1,0.2,0.2,0.4,0.2c0.1-0.5,0.3-0.5,0.9-0.4c0.1,0.3,0.4,0.5,0.7,0.6c0,0.4-0.3,0.6-0.3,1.1c0.1,0,0.2,0.1,0.2,0.1v0.1
				c0,0,0.1,0,0.1,0.1v0.1c0.1,0,0.2,0,0.3,0.1c0.2-0.3,0.3-0.5,0.5-0.8h0.3c0.1,0.2,0.3,0.3,0.6,0.2v-0.1c0.1,0,0.2,0,0.4-0.1
				c0,0,0-0.1,0.1-0.1c0.3-0.2,0.6-0.2,1.1-0.2c0.1,0.1,0,0,0.1,0.1l-0.1,0.2C78,18.9,77.9,19,77.8,19v0.1h-0.2V19
				c-0.1,0.1-0.1,0.1-0.1,0.3c0.1,0.1,0.1,0.1,0.2,0.2s0,0,0.1,0.1v0.1c0,0,0.1,0,0.1,0.1v0.1H78V20h0.1c0.1,0.2-0.1,0.1,0.1,0.2
				v0.1h0.2c0-0.1,0-0.1,0.1-0.2h0.1v-0.2c0,0,0.1,0,0.1-0.1v-0.1h0.1v-0.1c0.1-0.1,0.2-0.2,0.4-0.3v-0.1c0.1,0,0.1-0.1,0.2-0.1V19
				h0.1c0,0,0-0.1,0.1-0.1c0.2-0.1,0.6,0,0.9-0.1v-0.1h0.1c0-0.1,0-0.1,0.1-0.2s0.2-0.2,0.4-0.3v-0.1h0.2c0.1-0.1,0.7-0.1,1-0.1
				c0-0.1,0.1-0.1,0.1-0.2v-0.2c-8.2-8.8-20-14.3-33-14.3C24.5,3.3,4.3,23.6,4.3,48.5c0,3.4,0.4,6.7,1.1,9.9
				C5.9,58.3,6.4,58.1,6.7,57.9z"/>
			<path fill="#FFFFFF" d="M41.2,76.5C41.1,76.5,41.2,76.5,41.2,76.5C41,76.7,41,76.9,41,77.1h-0.1v0.3h-0.1v0.2h-0.1V78h-0.1v0.4
				h-0.1V79h-0.1v0.7h-0.1v0.8h0.1c0,0.6,0.1,1.2,0.1,1.9l0.2,0.2v0.1h0.1c0,0,0,0.1,0.1,0.1H41c0,0.1,0.1,0.1,0.1,0.2h0.1
				c0,0.1,0.1,0.1,0.1,0.2h0.1c0,0.1,0.1,0.1,0.1,0.2H42c0,0,0,0.1,0.1,0.1h0.1c0,0.1,0.1,0.1,0.1,0.2h0.1v0.1c0.1,0,0.1,0,0.2,0.1
				c0,0,0,0.1,0.1,0.1h0.1c0,0.1,0.1,0.1,0.1,0.2H43v0.1c0.1,0,0.1,0,0.2,0.1c0,0,0,0.1,0.1,0.1h0.1c0,0.1,0.1,0.1,0.1,0.2h0.1v0.1
				c0.1,0,0.1,0,0.2,0.1c0,0,0,0.1,0.1,0.1H44c0,0.1,0.1,0.1,0.1,0.2h0.1c0,0,0,0.1,0.1,0.1h0.1c0,0,0,0.1,0.1,0.1h0.1
				c0,0,0,0.1,0.1,0.1h0.1c0,0,0,0.1,0.1,0.1s0.2,0,0.2,0.1c0,0,0,0.1,0.1,0.1h0.1c0,0,0,0.1,0.1,0.1h0.1c0,0,0,0.1,0.1,0.1h0.1
				c0,0,0,0.1,0.1,0.1s0.1,0,0.2,0.1v0.1h0.1v0.1h0.1c0,0,0,0.1,0.1,0.1s0.2,0.1,0.4,0.1c0,0,0,0.1,0.1,0.1s0.2,0,0.2,0.1
				c0,0,0,0.1,0.1,0.1h0.1V87h0.1l0.1,0.1h0.1c0,0.1,0.1,0.1,0.1,0.2h0.1v0.1c0.1,0.1,0.2,0.3,0.4,0.3v0.1c0.4,0.2,0.6,0.6,0.9,1
				l0.2,0.2v0.1c0,0,0.1,0,0.1,0.1v0.1c0.1,0.1,0.2,0.1,0.2,0.2s0,0.1,0.1,0.2c0,0,0.1,0,0.1,0.1v0.1c0,0,0.1,0,0.1,0.1v0.1
				c0.1,0,0.1,0.1,0.2,0.1v0.1c0,0,0.1,0,0.1,0.1s0,0.1,0.1,0.2h0.1v0.1c0,0,0.1,0,0.1,0.1v0.1c0,0,0.1,0,0.1,0.1v0.1
				c0,0,0.1,0,0.1,0.1V91c0,0,0.1,0,0.1,0.1v0.1c0,0,0.1,0,0.1,0.1s0,0.2,0.1,0.2c0,0,0.1,0,0.1,0.1v0.1c0,0,0.1,0,0.1,0.1v0.1
				c0,0,0.1,0,0.1,0.1s0,0.2,0.1,0.2c0,0,0.1,0,0.1,0.1v0.1c0,0,0.1,0,0.1,0.1s0,0.2,0.1,0.2c0,0,0.1,0,0.1,0.1v0.1
				c0,0,0.1,0,0.1,0.1s0,0.2,0.1,0.2c0,0,0.1,0,0.1,0.1s0,0.2,0.1,0.2c0,0,0.1,0,0.1,0.1l0,0c0.9-0.1,1.8-0.1,2.7-0.3
				c0-0.1-0.1-0.2-0.2-0.4v-0.2H55v-0.1l0,0c0-0.1,0-0.2-0.1-0.4h-0.1v-0.1h-0.1v-0.2h-0.1v-0.1h-0.1c0-0.1,0-0.2-0.1-0.3h-0.1v-0.2
				h-0.1v-0.1h-0.1V91H54v-0.2h-0.1v-0.1h-0.1c0-0.1,0-0.2-0.1-0.4h-0.1v-0.1H54c0-0.1,0-0.2-0.1-0.4h-0.1v-0.1h-0.1
				c0-0.1,0-0.2-0.1-0.4h-0.1v-0.1h-0.1V89h-0.1v-0.1h-0.1v-0.2h-0.1c0-0.1,0-0.2-0.1-0.3h-0.1v-0.1h-0.1v-0.2h-0.1
				c0-0.1-0.1-0.2-0.1-0.4H53v-0.1l0,0c0-0.1-0.1-0.2-0.1-0.4c0,0-0.1,0-0.1-0.1s0-0.2-0.1-0.2c0,0-0.1,0-0.1-0.1v-0.1
				c0,0-0.1,0-0.1-0.1v-0.1c-0.1-0.1-0.2-0.2-0.3-0.2v-0.1c0,0-0.1,0-0.1-0.1C52,86,52,85.9,51.9,85.9h-0.1l-0.2-0.2h-0.1
				c0,0,0-0.1-0.1-0.1h-0.1c0,0,0-0.1-0.1-0.1L51,85.4v-0.1c-0.1,0-0.2-0.1-0.4-0.1V85h-0.2l0,0h-0.1v-0.1H50v-0.1h-0.1v-0.1
				c-0.1,0-0.2,0-0.4-0.1v-0.1h-0.1v-0.1c-0.2,0-0.4-0.1-0.6-0.1v-0.1h-0.1v-0.1h-0.2V84h-0.2v-0.1h-0.2v-0.1h-0.2v-0.1
				c-0.1,0-0.2,0-0.3-0.1V84h-0.1v-0.1h-0.2v-0.1h-0.1v-0.1c-0.2-0.1-0.4-0.1-0.6-0.2c0,0,0-0.1-0.1-0.1s-0.2,0-0.2-0.1
				c0,0,0-0.1-0.1-0.1h-0.1c0-0.1-0.1-0.1-0.1-0.2h-0.1c0-0.1-0.1-0.1-0.1-0.2c-0.2-0.1-0.3-0.3-0.5-0.4v-0.1
				c-0.1,0-0.1-0.1-0.2-0.1L45,82c0,0-0.1,0-0.1-0.1v-0.1c0,0-0.1,0-0.1-0.1s-0.1-0.2-0.1-0.4c0,0-0.1,0-0.1-0.1s-0.1-0.2-0.1-0.4
				c0,0-0.1,0-0.1-0.1v-0.1c0,0-0.1,0-0.1-0.1v-0.1c0,0-0.1,0-0.1-0.1s0-0.2-0.1-0.2c0,0-0.1,0-0.1-0.1v-0.1c-0.1,0-0.1-0.1-0.2-0.1
				c0-0.1,0-0.2-0.1-0.2c0,0-0.1,0-0.1-0.1v-0.1c0,0-0.1,0-0.1-0.1s0-0.1-0.1-0.2c-0.1,0-0.1-0.1-0.2-0.1v0c0,0-0.1,0-0.1-0.1v-0.1
				c-0.1,0-0.1-0.1-0.2-0.1v-0.1c0,0-0.1,0-0.1-0.1v-0.1c-0.1,0-0.1-0.1-0.2-0.1v-0.1c-0.1,0-0.1-0.1-0.2-0.1V78
				c-0.1,0-0.1-0.1-0.2-0.1v-0.1c-0.1,0-0.1-0.1-0.2-0.1v-0.1c-0.1,0-0.1-0.1-0.2-0.1v-0.1L41.5,77v-0.1c-0.1,0-0.1-0.1-0.2-0.1
				v-0.1C41.3,76.5,41.2,76.5,41.2,76.5z"/>
			<path fill="#FFFFFF" d="M37.4,91.6v-0.5h0.1v-0.7h0.1c0-0.6,0-1.2-0.1-1.7h-0.1c0-0.4,0-0.7-0.1-1.1h-0.1v-0.5h-0.1v-0.4H37v-0.4
				c-0.2-0.7-0.2-1.5-0.4-2.2v-0.4c-0.1-0.4-0.1-0.9-0.2-1.2c-0.1-0.3,0-0.6-0.1-0.8c-0.1,0.1-0.2,0.2-0.3,0.4h0v0.1
				c-0.1,0.1-0.2,0.2-0.4,0.3v0.1c-0.1,0.1-0.2,0.1-0.2,0.2v0.1c-0.1,0-0.1,0.1-0.2,0.1v0.1L35,83.3v0.1c-0.1,0-0.1,0.1-0.2,0.1
				c0,0.1,0,0.1-0.1,0.2c0,0-0.1,0-0.1,0.1V84c0,0-0.1,0-0.1,0.1s0,0.1-0.1,0.2h-0.1v0.1c0,0-0.1,0-0.1,0.1v0.1h-0.1
				c0,0.1,0,0.1-0.1,0.2c0,0-0.1,0-0.1,0.1V85c-0.1,0-0.1,0.1-0.2,0.1c0,0.1-0.1,0.2-0.1,0.4c0,0-0.1,0-0.1,0.1s0,0.2-0.1,0.2
				c0,0-0.1,0-0.1,0.1s-0.1,0.2-0.1,0.4c0,0-0.1,0-0.1,0.1v0.2H33v0.1l0,0c0,0.1-0.1,0.2-0.1,0.4h-0.1v0.2C32.4,88,32.1,89,32,90.2
				c1.7,0.7,3.5,1.3,5.3,1.8C37.4,91.9,37.4,91.8,37.4,91.6z"/>
			<path fill="#FFFFFF" d="M61.8,91.6c-0.1-0.2-0.3-0.3-0.4-0.5h-0.1V91L61,90.9c-0.1-0.1-0.2-0.2-0.2-0.3h-0.1
				c-0.2-0.2-0.4-0.4-0.6-0.6H60v-0.1c-0.1,0-0.1-0.1-0.2-0.1l-0.2-0.2h-0.1c-0.1-0.1-0.2-0.3-0.4-0.4H59c-0.1-0.1-0.2-0.2-0.3-0.4
				h-0.1c-0.1-0.1-0.1-0.2-0.2-0.2h-0.1L58,88.2h-0.1c0-0.1-0.1-0.1-0.1-0.2h-0.1c0-0.1-0.1-0.1-0.1-0.2h-0.1l-0.2-0.2h-0.1
				c0-0.1-0.1-0.1-0.1-0.2H57c-0.1-0.1-0.2-0.2-0.3-0.4h-0.1c0,0,0-0.1-0.1-0.1c-0.2-0.2-0.6-0.4-0.9-0.4c0.2,0.5,0.4,0.9,0.6,1.4
				h0.1V88h0.1v0.2h0.1v0.1h0.1c0,0.1,0,0.2,0.1,0.2h0.1c0,0.1,0,0.2,0.1,0.2H57c0,0.1,0,0.2,0.1,0.2h0.1V89h0.1v0.1h0.1v0.1h0.1
				v0.1h0.1v0.1H57v0.1l0,0v0.1h0.1V90h0.1v0.1l0.1,0.1v0.1c0,0,0.1,0,0.1,0.1v0.2c0,0,0.1,0,0.1,0.1v0.1l0.1,0.1V91h0.1v0.1h0.1
				v0.1h0.1v0.1H58v0.1h0c0,0.1,0,0.2,0.1,0.2h0.1v0.1c0,0,0.1,0,0.1,0.1s0,0.2,0.1,0.2h0.1c0,0.1,0,0.2,0.1,0.2
				c0.1,0.1,0.1,0.2,0.2,0.3c1.2-0.2,2.4-0.5,3.6-0.9C62,91.8,61.9,91.7,61.8,91.6z"/>
			<path fill="#FFFFFF" d="M30.3,88.7c0-0.1,0-0.2,0.1-0.4h0.1v-0.2h0.1c0-0.2,0-0.4,0.1-0.6h0.1v-0.2h0.1v-0.2H31V87h0.1
				c0-0.1,0.1-0.2,0.1-0.4H31v-0.1l0,0c0-0.1,0.1-0.2,0.1-0.4c0,0,0.1,0,0.1-0.1s0-0.2,0.1-0.2c0,0,0.1,0,0.1-0.1s0-0.2,0.1-0.2
				s0.1-0.1,0.2-0.1v-0.1c0,0,0.1,0,0.1-0.1l0.1-0.2H32v-0.1l0,0c0-0.1,0-0.1,0.1-0.2c0,0,0.1,0,0.1-0.1v-0.1c0.1,0,0.1-0.1,0.2-0.1
				v-0.1c0,0,0.1,0,0.1-0.1V84c0.1,0,0.1-0.1,0.2-0.1v-0.1c0.1,0,0.1-0.1,0.2-0.1v-0.1c0.1,0,0.1-0.1,0.2-0.1v-0.1h0.1
				c0-0.1,0-0.1,0.1-0.2c0,0,0.1,0,0.1-0.1V83c0,0,0.1,0,0.1-0.1s0-0.1,0.1-0.2c0.1,0,0.1-0.1,0.2-0.1v-0.1c0,0,0.1,0,0.1-0.1v-0.1
				c0.1,0,0.1-0.1,0.2-0.1V82h0.1c0-0.1,0-0.1,0.1-0.2c0,0,0.1,0,0.1-0.1v-0.1c0.1,0,0.1-0.1,0.2-0.1c0-0.1,0-0.2,0.1-0.2
				c0,0,0.1,0,0.1-0.1v-0.1c0,0,0.1,0,0.1-0.1v-0.1c0,0,0.1,0,0.1-0.1v-0.1c0,0,0.1,0,0.1-0.1v-0.1c0.1,0,0.1-0.1,0.2-0.1v-0.1
				c0,0,0.1,0,0.1-0.1v-0.1c0.1,0,0.1-0.1,0.2-0.1v-0.1l0.2-0.2v-0.1c0.1,0,0.1-0.1,0.2-0.1v-0.1c0,0,0.1,0,0.1-0.1v-0.1l0.2-0.2
				v-0.4c0.1-0.1,0-0.4,0.1-0.6c0.1-0.4,0.1-1,0.2-1.4h-0.1c-0.1,0.2-0.4,0.2-0.6,0.4c0,0.1-0.1,0.1-0.1,0.2h-0.1c0,0,0,0.1-0.1,0.1
				h-0.1c-0.1,0.1-0.1,0.2-0.2,0.2h-0.1c0,0,0,0.1-0.1,0.1H35c-0.1,0.1-0.1,0.2-0.2,0.2h-0.1c-0.1,0.1-0.1,0.2-0.2,0.2h-0.1
				c-0.1,0.1-0.2,0.2-0.2,0.3H34c0,0.1-0.1,0.1-0.1,0.2l-0.2,0.2v0.1h-0.1c0,0,0,0.1-0.1,0.1c-0.1,0.1-0.3,0.3-0.5,0.4v0.1h-0.1
				c-0.2,0.3-0.7,0.7-0.9,0.9c-0.5,0.6-1.1,1.1-1.6,1.7v0.1c-0.1,0.1-0.2,0.1-0.2,0.2s0,0.1-0.1,0.2c0,0-0.1,0-0.1,0.1v0.1
				c0,0-0.1,0-0.1,0.1s0,0.1-0.1,0.2h-0.1v0.1c0,0-0.1,0-0.1,0.1s0,0.2-0.1,0.2c0,0-0.1,0-0.1,0.1v0.1c0,0-0.1,0-0.1,0.1v0.1
				L29,83.9V84l0,0v0.1h-0.1v0.1h-0.1v0.1h-0.1v0.1h-0.1v0.1h-0.1c0,0.1-0.1,0.2-0.1,0.4h-0.1c0,0.1,0,0.2-0.1,0.3h-0.1L28,85.4
				h-0.1v0.2h-0.1v0.1h-0.1V86H28v0.1l0,0c-0.2,0.6-0.4,1.2-0.6,1.8c0.9,0.5,1.7,0.9,2.6,1.4C30.1,89.1,30.2,88.9,30.3,88.7z"/>
			<path fill="#FFFFFF" d="M84.8,20.4c-0.3,0-0.5,0-0.7,0.2c0,0,0,0.1-0.1,0.1c-0.1,0.1-0.2,0.2-0.3,0.2V21h-0.1
				c-0.1,0.1,0,0.1-0.2,0.1V21H83v-0.1c-0.1,0-0.2,0-0.3-0.1c0-0.1-0.1-0.1-0.1-0.1v-0.2h-0.1c-0.1-0.2-0.1-0.3-0.3-0.4V20h-0.5v0.1
				c0,0,0.1,0,0.1,0.1S81.5,21,81.5,21c-0.1,0.1-0.4,0.1-0.6,0.1h-1.4c-0.1,0.1,0,0.1-0.1,0.1c0.1,0.1,0,0,0.1,0.1
				c0.1,0.3,0.3,0.4,0.6,0.6V22h0.2c0,0,0,0.1,0.1,0.1V22c0.2-0.1,0.2-0.1,0.3-0.2h0.1v0.1c0.1,0.1,0.2,0.6,0.2,0.9
				c-0.1,0.1-0.3,0.3-0.3,0.4c-0.2,0-0.3,0-0.5-0.1c-0.2-0.4-0.2-0.5-0.8-0.4v0.1c-0.1,0-0.3,0-0.4,0.1V23h-0.2v0
				c-0.1,0-0.1,0-0.2,0.1c0,0.1,0,0.2-0.1,0.3c0.2,0.2,0.1,0.4,0.2,0.6H79v0.2l0,0v0.2h0.1v0.2h0.1v0.2h0.1c0.1,0.2,0.1,0.3,0.2,0.5
				h0.2c0.1-0.2,0.3-0.2,0.4-0.3c0,0,0-0.1,0.1-0.1c0.2-0.2,0.4-0.4,0.6-0.7c0.3,0.1,0.6,0.2,0.9,0.2c0,0,0,0.1,0.1,0.1
				s0.2,0,0.2,0.1v0.1c0.1,0,0.2,0,0.2-0.1v-0.1h0.5c0,0.1,0,0.1,0.1,0.2c0.2,0.2,0,0.5,0.1,0.7H83c0,0,0,0.1,0.1,0.1h0.1
				c0.1,0.1,0.1,0.2,0.2,0.2h0.1v0.1c0.1,0,0.1,0.1,0.2,0.1V26c0.1,0,0.1,0.1,0.2,0.1c0.2,0.3,0.1,0.6,0,0.9
				c-0.2,0.1-0.4,0.1-0.6,0.2c0,0,0,0.1-0.1,0.1H83v0.1c-0.2,0.1-0.3,0.1-0.4,0.4c0.2,0.1,0.3,0.4,0.4,0.6c0,0,0.1,0,0.1,0.1v0.2
				c-0.1,0.1-0.1,0.2-0.3,0.2V29h-0.2c0,0.5,0.2,0.8,0.4,1.2c0.2,0,0.3,0,0.5,0.1c0.1-0.1,0.2-0.1,0.2-0.2V30h0.1c0,0,0-0.1,0.1-0.1
				h0.8c0,0.1,0.3,0.1,0.5,0.1c0,0.2,0.2,0.3,0.2,0.4v0.1c0.1,0,0.1,0.1,0.2,0.1v0.1c0,0,0.1,0,0.1,0.1V31c0,0,0.1,0,0.1,0.1v0.1
				h0.1c0,0.1,0,0.1,0.1,0.2h-0.1v0.1h-0.1c0,0.2,0,0.4,0.1,0.6c-0.1,0-0.1,0.1-0.1,0.1c-0.1,0-0.3,0-0.4,0.1l-0.1,0.1v0.1
				c0.1,0.1,0.2,0.2,0.4,0.3h-0.1c-0.2,0.3-0.9,0.3-1.3,0.4c0,0.2-0.3,1-0.1,1.2v0.1h0.1c0,0.1,0.1,0.1,0.1,0.2h0.1l0.2,0.2h0.1
				c0,0,0,0.1,0.1,0.1H85c0,0,0,0.1,0.1,0.1h0.1c0.1,0.3,0.3,0.5,0.4,0.7c0.3,0.1,0.2,0.2,0.5,0.2c0.1-0.2,0.1,0,0.2-0.1
				c0,0,0-0.1,0.1-0.1h0.1l0.1-0.2c0,0,0.1,0,0.1-0.1v-0.1h0.1c0.1-0.1,0.1-0.2,0.2-0.2s0.2,0,0.3-0.1v0.1c0.2,0,0.6,0.2,0.7,0.4
				v0.1c0.1,0,0.1,0.1,0.2,0.1V36h0.2l0,0h0.2v0.1h0.2v0.1c0.2,0.1,0.1,0.1,0.1,0.4h-0.1c0,0.1,0,0.3-0.1,0.4
				c-0.1,0.2-0.4,0.3-0.4,0.6h0.1c0,0.1,0,0.2,0.1,0.2h0.2c0,0,0-0.1,0.1-0.1h0.1v-0.1c0.1-0.1,0.1-0.1,0.3-0.2
				c0,0.2,0.2,0.3,0.2,0.4V38h0.1v0.1h0.1v0.1c0,0,0.1,0,0.1,0.1s0,0.2,0.1,0.3c0,0,0.1,0,0.1,0.1v0.1c0,0,0.1,0,0.1,0.1V39
				c0,0,0.1,0,0.1,0.1v0.1c0.1,0.2,0.2,0,0.2,0.4c-0.1,0.1-0.2,0.2-0.4,0.3V40c-0.2,0-0.5,0.1-0.7,0.1v0.1H89
				c-0.1,0.2-0.2,0.3-0.3,0.5c-0.1,0-0.2,0-0.3,0.1c0,0,0,0.1-0.1,0.1h-0.1c0,0-0.2,0.3-0.2,0.4c-0.1,0.1,0,0.2-0.1,0.3h-0.1
				c-0.1,0.1-0.5,0-0.8,0c0,0.1-0.1,0.1-0.1,0.2h-0.1c0,0.1,0,0.2-0.1,0.2c0,0-0.1,0-0.1,0.1v0.2h-0.1v0.1h-0.1c0,0.1,0,0.1-0.1,0.2
				c-0.1-0.1,0,0-0.1-0.1s-0.1-0.1-0.1-0.2H86c0-0.1-0.1-0.1-0.1-0.2h-0.1v-0.2c0,0-0.1,0-0.1-0.1c-0.2-0.2-0.3-0.3-0.7-0.2
				c-0.1,0.1-0.1,0.2-0.2,0.2h-0.1V42h-0.1v0.1c-0.1,0.1-0.1,0-0.2,0.1v-0.1h-0.2V42h-0.1v-0.1c-0.3-0.1-0.8-0.1-1.1-0.1
				c0,0.2-0.1,0.2-0.1,0.3h-0.1v0.2c-0.3,0-0.6-0.1-0.8-0.2c-0.3-0.1-0.9,0-1.2,0.1c-0.1,0.3,0,0.3,0,0.6c0.2,0,0.5,0,0.7,0.1
				c0.1,0,0.2-0.1,0.3-0.1v0.1H82V43c0.1,0,0.2,0,0.2,0.1c0.2,0.1,0.7,0.6,0.7,0.9c0.1,0,0.2,0,0.2,0.1V44c0.3-0.1,0.2-0.2,0.4-0.4
				h0.1c0,0,0-0.1,0.1-0.1c0.1-0.1,0.1,0,0.2-0.1c0.4,0,0.8-0.1,1.2,0c0.1,0.2,0.1,0.5,0.1,0.7c-0.1,0.1,0,0-0.1,0.1
				c-0.4,0.1-0.3,0.3-0.4,0.6h0.1c0.1,0.2,0.5,0.1,0.8,0.1c0.1-0.1,0.2-0.3,0.2-0.4c0.1-0.2,0-0.6,0.1-0.8v-0.1h0.4
				c0.1,0.1,0.1,0,0.1,0.1c0.1,0.1,0.2,0.2,0.2,0.3c0.1,0.1,0.5,0.2,0.7,0.2V44h0.1c0,0.3,0,0.5-0.1,0.8c0.1,0.1,0.2,0.1,0.3,0.2
				c-0.1,0.1,0,0-0.1,0.1s-0.1,0.1-0.2,0.1c-0.1,0.1-0.1,0.2-0.2,0.2V46h-0.8v0.1c-0.1,0-0.2,0.1-0.4,0.1v0.1c0.1,0,0.9,0.4,0.9,0.4
				V47c-0.2,0.1,0,0.1-0.1,0.2h-0.1v0.1c0,0-0.1,0-0.1,0.1s0,0.2-0.1,0.4c-0.3-0.1-0.5-0.2-0.7-0.4h-0.1v-0.1h-0.1V47
				c0,0-0.1,0-0.1-0.1c-0.2-0.2,0-0.2-0.4-0.2c-0.1,0.1,0,0-0.1,0.1c0,0.2,0.1,0.1,0.1,0.3h-0.7c-0.1,0.2-0.1,0.1-0.1,0.4
				c0.2,0.1,0.3,0.3,0.5,0.4V48c0.2,0.1,0.3,0.2,0.4,0.3v0.1c0.1,0,0.3,0.1,0.4,0.1c0,0.3,0.1,0.7,0.1,1c0.1,0,0.1,0,0.2,0.1
				c0,0,0,0.1,0.1,0.1s0.1,0.1,0.2,0.1v0.1c0,0,0.1,0,0.1,0.1v0.2h0.1c0.1,0.2,0,0.2,0.2,0.3c0.2,0.2,0.4,0,0.6,0.1v0.1h0.2v0.1
				l0.2,0.1V51c0.1,0.1,0.1,0.1,0.2,0.1c0,0.1,0,0.1,0.1,0.2h0.1v0.1H88v0.4h-0.1c-0.1,0.3-0.2,0.7-0.5,0.7v0.1
				c-0.2,0-0.4-0.1-0.6-0.1v-0.1h-0.2c0,0.1-0.1,0.2-0.1,0.4h-0.1c0,0.1-0.2,0.2-0.2,0.2v0.7c0.1,0.1,0.1,0.2,0.2,0.1v0.7
				c-0.3-0.1-0.6,0.1-0.9,0.2c-0.1-0.1-0.2-0.3-0.3-0.4c0-0.5,0-1-0.1-1.4c-0.2,0-0.4,0-0.6-0.1v0.1h-0.2V53h-0.1v-0.1
				c-0.2-0.1-0.1-0.2-0.2-0.4c-0.1-0.1-0.2-0.1-0.2-0.2c0,0,0-0.1-0.1-0.1h-0.1c-0.1-0.1-0.2-0.2-0.3-0.4c0.1-0.2,0.2-0.3,0.2-0.6
				H83c0,0,0-0.1-0.1-0.1h-0.1c-0.1,0.1-0.2,0.3-0.2,0.4c-0.1,0.3,0.1,0.4-0.3,0.4c0-0.1-0.1-0.2-0.2-0.3v0.1
				c-0.1,0.1-0.1,0.2-0.2,0.2h-0.1c0,0,0,0.1-0.1,0.1h-0.3c-0.2,0.1-0.5,0.1-0.6,0.2V52c0.1-0.2,0-0.7,0-0.9c-0.1,0.1,0,0-0.1,0.1
				h-0.1v0.4c-0.1,0.2-0.3,0.3-0.3,0.6c-0.2,0-0.5-0.1-0.7-0.2c0-0.1-0.1-0.2-0.1-0.2H79v0.1h-0.2c-0.1,0.1-0.2,0.2-0.2,0.3
				c-0.1,0-0.2,0-0.3,0.1V52c-0.1,0-0.2,0-0.4-0.1v-0.1h-0.1v-0.1c0,0-0.2-0.1-0.3-0.1v0.1c-0.1,0-0.1,0.1-0.1,0.1
				c0,0.1,0,0.1,0.1,0.2c0.2,0.1,0.4,0.1,0.6,0.2c0,0,0,0.1-0.1,0.1s-0.1,0-0.2,0.1v0.1c-0.3,0.1-0.7-0.1-0.9,0.1
				c0.1,0.1,0.1,0.1,0.1,0.2l0,0c0,0.1,0,0.2-0.1,0.3c0,0.2,0,0.4,0.1,0.6h-0.1c0,0.1,0,0.1-0.1,0.2h-0.1c0-0.2,0-0.2-0.1-0.3
				c-0.1,0-0.4,0.2-0.6,0.1l-0.2-0.2c-0.2,0-0.5-0.1-0.7-0.1v0.1H75v0.2h0.1v0.2h0.1V54c0.1,0.2,0.2,0.3,0.2,0.5h0.3
				c0,0.1,0,0.1,0.1,0.2c0.2,0.2,0,0.5,0.1,0.8H76v0.2h0.1c0,0.2,0,0.5-0.1,0.7h-0.1v0.9h-0.1c-0.1-0.1-0.1-0.2-0.2-0.2h-0.1
				c0-0.1-0.1-0.1-0.1-0.2h-0.1v-0.1c-0.1-0.1-0.2-0.1-0.2-0.2v-0.1c0,0-0.1,0-0.1-0.1v-0.1c-0.1-0.2-0.2-0.3-0.3-0.5h-0.3v0.1h-0.2
				V56h-0.1v-0.4c0.1-0.1,0.1-0.1,0.1-0.2c0.1-0.1,0.2-0.2,0.3-0.2c0.2-0.3,0.2-0.8,0.2-1.2c-0.2-0.2-0.1-0.4-0.4-0.4
				c0,0.2-0.1,0.2-0.1,0.4c-0.1,0-0.1,0.1-0.3,0.1c-0.1-0.1-0.2-0.2-0.4-0.3v-0.1h-0.1v0.1h-0.1c0,0.2-0.1,0.5-0.1,0.7h0.1v0.2h0.1
				c0.1,0.1,0.1,0.2,0.2,0.2h-0.9c-0.1,0.1-0.1,0.2-0.2,0.3s-0.3,0-0.4,0.1V55c-0.1,0.1-0.1,0-0.2,0.1c0-0.1,0-0.2-0.1-0.3
				c-0.2-0.1-0.4-0.1-0.7-0.1c-0.1,0.1-0.6,0-0.7-0.1C70,54.4,70,54.5,70,54.2h0.1c0-0.2,0-0.3-0.1-0.5l0,0v-0.4
				c0.3-0.1,0.6-0.3,0.9-0.6c0,0,0.1,0,0.1-0.1V52c-0.1-0.1,0,0-0.1-0.1c-0.2,0-0.3,0-0.5-0.1c0,0,0,0.1-0.1,0.1h-0.1
				c0,0.1,0,0.3-0.1,0.4c-0.3,0.1-0.4,0.2-0.7,0.2c-0.1-0.2-0.3-0.3-0.7-0.2v0.1c-0.1,0-0.2,0-0.3,0.1c-0.1,0.3-0.1,0.4-0.1,0.9
				h-0.1c-0.2-0.3-0.4-0.1-0.7-0.1v0.2h-0.1v0.1H67c-0.1-0.1,0,0-0.1-0.1c0-0.1,0-0.1-0.1-0.2h-0.1v-0.1h-0.1V53h-0.1
				c0-0.1-0.1-0.1-0.1-0.2h-0.1c0-0.1-0.1-0.1-0.1-0.2h-0.1c0,0,0-0.1-0.1-0.1h-0.1c-0.1-0.2-0.2-0.3-0.2-0.5
				c-0.3,0.1-0.5,0.3-0.8,0.4c0,0.1,0,0.1-0.1,0.2H65c0,0.1,0,0.2,0.1,0.3c0.3,0,0.4,0.1,0.6,0.2h0.1c0,0,0,0.1,0.1,0.1H66v0.1
				c0,0,0.1,0,0.1,0.1v0.2c-0.3,0.2-0.2,0.4-0.1,0.7c0.1,0,0.2,0.1,0.4,0.1c0-0.1,0.1-0.1,0.1-0.1V54h0.1c0,0.6,0.3,1,0.4,1.5v0.6
				c-0.1,0-0.2,0.1-0.4,0.1c-0.1-0.1-0.2-0.1-0.4-0.1c-0.1,0.1-0.1,0.3-0.1,0.5h0.1c0,0.1,0,0.2,0.1,0.4l0.1,0.1H66V57h-0.1
				c0,0,0-0.1-0.1-0.1h-0.1c0,0,0-0.1-0.1-0.1c-0.2-0.1-0.3-0.1-0.6-0.1c-0.1,0.3-0.2,0.5-0.2,0.9h-0.1c0-0.1-0.1-0.2-0.1-0.4
				c-0.1,0-0.1-0.1-0.2-0.1c0-0.2,0-0.4,0.1-0.6h-0.1c-0.2-0.3-0.2-0.3-0.6-0.3c0,0.1-0.1,0.2-0.1,0.4c0.1,0.1,0.2,0.5,0.2,0.6
				c-0.1,0.1-0.1,0.1-0.2,0.2c-0.1,0.1-0.7,0.4-0.9,0.3v-0.1c-0.1,0-0.2,0-0.3-0.1c0-0.1-0.1-0.2-0.2-0.2v-0.1
				c0.1,0,0.1-0.1,0.2-0.1V57c0.3-0.2,0.6-0.3,0.6-0.8c-0.2-0.1-0.2-0.2-0.5-0.2v0h-0.2v-0.2c0.2-0.1,0.3-0.2,0.5-0.3h0.2v-0.1h0.1
				v-0.1h0.1c0.1-0.2,0.2-0.3,0.4-0.5H64c0,0,0-0.1,0.1-0.1s0.2,0,0.2-0.1s0-0.1,0.1-0.2c0.1,0,0.1-0.1,0.2-0.1v-0.1
				c-0.3-0.3,0-0.5-0.2-0.7c-0.1-0.1-0.2-0.1-0.2-0.2c-0.1-0.2-0.3-0.3-0.4-0.5h-0.1c0,0,0-0.1-0.1-0.1l-0.2-0.1c0,0,0-0.1-0.1-0.1
				h-0.1c-0.1-0.1-0.2-0.4-0.2-0.6h-0.2V52h-0.1v0.4c0.1,0.1,0.3,0.3,0.2,0.6h-0.1v0.4h-0.1c0,0.1,0.1,0.1,0.1,0.1v0.6
				c-0.2,0.1-0.3,0.2-0.5,0.2v0.1c-0.1,0-0.1,0.1-0.2,0.1v0.1H62c0,0.3-0.1,0.4,0,0.7c-0.7,0-0.9-0.4-1.6-0.4c0,0.1,0,0.3,0.1,0.4
				c0.2,0.1,0.3,0.1,0.6,0.1v0.1h0.2c0,0.4-0.2,0.3-0.2,0.6v0.2H61v0.6h-0.1v0.2h-0.1v0.2c0,0-0.1,0-0.1,0.1
				c-0.1,0.2,0.1,0.1-0.2,0.2c0-0.2-0.1-0.4-0.1-0.5v-0.4h-0.1v-0.1h-0.2c-0.1,0.1-0.1,0.1-0.2,0.2v-0.1c-0.2-0.2-0.4-0.3-0.6-0.5
				v-0.3c0.1,0,0.1,0,0.2-0.1c0-0.1,0-0.2-0.1-0.4h-0.1v-0.1c-0.1,0-0.3,0-0.4-0.1v0.1h-0.2v0.1c0.3,0.1,0.2,0.2,0.1,0.4V56
				c-0.2,0.1-0.4,0.1-0.6,0.2c-0.1,0.2-0.2,0.3-0.3,0.5v0.2h-0.1c-0.2-0.3-0.7-0.2-1.1-0.4c-0.1-0.3-0.1-0.6-0.2-0.9
				c-0.1,0-0.1,0-0.2-0.1v-0.1h-0.1v-0.1c-0.2,0-0.5-0.1-0.7-0.1c0,0,0-0.1-0.1-0.1S55.3,55,55.2,55c-0.1-0.3,0.2-0.3-0.2-0.4
				c0,0.2-0.2,0.4-0.4,0.5v0.1c-0.1,0-0.2,0-0.3,0.1c0,0.3,0,0.2,0,0.5H54c-0.1,0.1-0.2,0.3-0.2,0.4v0.2h-0.1c0,0.1,0,0.2-0.1,0.3
				h-0.1v-0.1h-0.1c0-0.1,0-0.2-0.1-0.4c0.1-0.1,0,0,0.1-0.1c-0.3,0-0.5,0-0.7-0.1c0-0.1,0-0.3,0.1-0.4h-0.1
				c-0.3,0.3-1.1,0.3-1.2,0.8h-0.1c0,0.3-0.1,0.6-0.1,0.9h-0.2v-0.2C51,57.1,51,57,50.9,57v-0.1h-0.1c0,0,0-0.1-0.1-0.1
				c-0.2-0.2-0.2-0.2-0.2-0.6c0.2-0.1,0.3-0.2,0.5-0.3v-0.1h0.4v-0.1h0.1v-0.1h0.1c0-0.1,0.1-0.1,0.1-0.2H52v-0.1
				c0.1-0.1,0.2-0.1,0.2-0.2C52,54.9,52,55,52,54.6l0,0v-0.1c0.2,0,0.7,0,0.8-0.1h0.1v-0.2h-0.1v-0.3h-0.1v-0.1h-0.2
				C52.4,53.9,52.2,54,52,54c-0.1-0.2-0.2-0.3-0.4-0.5h-0.1v-0.1h-0.2v0.1c-0.2,0-0.5-0.1-0.6-0.1h-0.1v-0.1c0.2,0,0.3-0.1,0.5-0.1
				c0-0.1,0-0.2,0.1-0.3c-0.1-0.1-0.2-0.1-0.2-0.2v-0.1h-0.1c0,0,0-0.1-0.1-0.2v-0.2h-0.7v0.1H50V53c-0.3,0-0.5,0-0.8,0.1v-0.4
				c-0.2-0.1-0.2-0.3-0.4-0.4v0.1c-0.1,0-0.1,0.1-0.2,0.1v0.1h-0.2v0.1c-0.2,0.1-0.4,0.1-0.4,0.5c0.2,0.2,0,0.8,0,1h-0.2
				c0,0,0-0.1-0.1-0.1c-0.2-0.2-0.1-1-0.1-1.4h-0.1v0.1h-0.1c0,0.1,0,0.2-0.1,0.3c0,0-0.1,0-0.1,0.1v0.1h-0.1c0,0.1,0,0.1-0.1,0.2
				h-0.1v-0.2c0-0.3,0-0.3-0.3-0.3c-0.1,0.2-0.2,0.3-0.4,0.3c0,0.2-0.1,0.5-0.1,0.7c-0.2,0-0.3,0.1-0.5,0.1c0-0.1-0.2-0.2-0.2-0.2
				c0-0.1,0-0.2-0.1-0.4h-0.1c0,0,0-0.1-0.1-0.1c-0.1-0.1-0.1,0-0.2-0.1c-0.3,0-0.3,0-0.6,0c0,0.2,0,0.5-0.1,0.7h-0.1
				c0,0.1,0,0.1-0.1,0.2h0c0-0.1-0.1-0.1-0.1-0.2h-0.1v-0.1h-0.1c-0.2-0.4,0.2-0.6-0.6-0.6c-0.1,0.2-0.2,0.5-0.3,0.6h-0.2
				c0,0,0,0.1-0.1,0.1c0,0-0.1,0-0.1,0.1v0.2c-0.1,0.1-0.3,0.1-0.4,0.1c-0.1-0.2-0.2-0.1-0.3-0.3h-0.1c0-0.1,0-0.3-0.1-0.4
				c-0.2,0-0.2,0.1-0.4,0.1C41,54,40.9,54,40.9,54.4c-0.2,0-0.5,0-0.7,0.1c0,0.1,0,0.1-0.1,0.2H40c-0.1,0.2,0.1,0.1-0.2,0.2V55
				c-0.1,0-0.2,0-0.4-0.1v-0.4c-0.1-0.1-0.2-0.3-0.3-0.3H39v-0.1l0,0V54h-0.1v-0.1h-0.1v-0.1c-0.1-0.1-0.3-0.2-0.4-0.3
				c0,0.4-0.3,0.5-0.7,0.4c0,1.1,0.2,1.9,0.6,2.6c0,0.1,0,0.2,0.1,0.2h0.1c0,0.1,0,0.1,0.1,0.2c0,0,0.1,0,0.1,0.1v0.1
				c0,0,0.1,0,0.1,0.1s0,0.1,0.1,0.2c0.1,0,0.1,0.1,0.2,0.1v0.1c0.1,0.1,0.2,0.2,0.3,0.2v0.1c0.1,0.1,0.3,0.2,0.4,0.4
				c0,0.1,0.1,0.1,0.1,0.2H40c0,0,0,0.1,0.1,0.1s0.1,0,0.2,0.1v0.1c0.1,0,0.2,0,0.2,0.1c0,0,0,0.1,0.1,0.1s0.2,0.1,0.4,0.1
				c0,0,0,0.1,0.1,0.1s0.2,0,0.2,0.1c0,0,0,0.1,0.1,0.1s0.2,0,0.2,0.1c0,0,0,0.1,0.1,0.1h0.1c0,0,0,0.1,0.1,0.1H42
				c0.1,0.1,0.2,0.2,0.2,0.3c0.1,0,0.1,0,0.2,0.1V60h0.1c0,0.1,0,0.1,0.1,0.2l0.2,0.2v0.1c0.1,0,0.1,0.1,0.2,0.1
				c0,0.1,0,0.2,0.1,0.2c0,0,0.1,0,0.1,0.1s0,0.2,0.1,0.2c0,0,0.1,0,0.1,0.1v0.2h0.1v0.1h0.1v0.2h0.1V62h0.1v0.4h0.1v0.2H44v0.1h0.1
				v0.2h0.1v0.2h0.1c0,0.1,0,0.3,0.1,0.4H44c0,0.2,0,0.3,0.1,0.5h0.1v0.4h0.1c0.1,0.4-0.1,1.4-0.2,1.7c0,0.4-0.1,0.8-0.1,1.2h-0.1
				v0.1h-0.1v0.2h-0.1V68h-0.1v0.2h-0.1v0.1h-0.1c0,0.1,0,0.2-0.1,0.4h-0.1c0,0.1,0,0.2-0.1,0.4H43v0.1h-0.1c0,0.2-0.1,0.4-0.1,0.6
				H43V70l0,0v0.2h-0.1v0.2h-0.1v0.1h-0.1v0.2h-0.1v0.1h-0.1V71c-0.1,0.1-0.1,0.3-0.2,0.4c0.4,0.1,0.7,0.3,1.1,0.4V72
				c0.1,0,0.2,0,0.2,0.1c0,0,0,0.1,0.1,0.1s0.2,0.1,0.4,0.1c0,0,0,0.1,0.1,0.1h0.1v0.1h0.1v0.1c0.1,0,0.1,0,0.2,0.1
				c0,0,0,0.1,0.1,0.1H45v0.1c0.1,0,0.1,0,0.2,0.1c0,0,0,0.1,0.1,0.1h0.1c0,0.1,0.1,0.1,0.1,0.2h0.1c0,0,0,0.1,0.1,0.1h0.1
				c0,0.1,0.1,0.1,0.1,0.2H46l0.2,0.2c0.1,0,0.1,0,0.2,0.1c0,0,0,0.1,0.1,0.1h0.1c0.1,0.1,0.2,0.2,0.2,0.3h0.1
				c0.1,0.1,0.2,0.2,0.2,0.3h0.1c0.1,0.1,0.2,0.3,0.4,0.4h0.1c0,0,0,0.1,0.1,0.1h0.1c0.2,0.2,0.3,0.4,0.6,0.5v0.1
				c0.2,0.1,0.8,0.7,0.9,0.9h0.1v0.1c0.2,0,0.2,0.1,0.3,0.2V77h0.1c0,0,0,0.1,0.1,0.1s0.2,0.1,0.4,0.1v0.1h0.1v0.1
				c0.1,0,0.2,0.1,0.4,0.1v0.1c0.9,0.3,1.8,0.6,2.7,0.9h0.3v0.1H54v0.1h0.3c0.6,0.2,1.5,0.5,2.1,0.4V79h0.1c0.1-0.2,0.2-0.2,0.2-0.4
				c-0.1,0-0.2-0.1-0.4-0.1c0-0.1-0.1-0.1-0.1-0.2h-0.1c-0.1-0.1-0.2-0.3-0.3-0.4v-0.2h-0.1v-0.4h-0.1c0-0.2,0-0.4,0.1-0.6h-0.1
				c0-0.1,0-0.2-0.1-0.2c-0.2,0-0.3-0.1-0.4-0.2H55c0,0,0-0.1-0.1-0.1c0.2,0,0.4,0,0.6-0.1c0,0,0-0.1,0.1-0.1
				c0.1-0.1,0.5-0.5,0.7-0.3c0.5,0.1,0.5,0.3,0.7,0.6c0.1,0,0.1,0.1,0.2,0.1c0,0,0,0.1,0.1,0.1c0.3,0.1,0.7,0.1,1,0.2v0.1
				c0.1,0,0.2,0,0.3,0.1V77c0.1,0,0.2,0,0.2,0.1v0.1H59v0.1c0.1,0.1,0.1,0.1,0.2,0.1v0.4c0.2,0.1,0.8,0.5,0.8,0.7h-0.2v0.1
				c0.1,0,0.1,0,0.2,0.1v0.1h0.1c0,0,0,0.1,0.1,0.1s0.2,0,0.2,0.1c0,0,0,0.1,0.1,0.1s0.2,0,0.2,0.1v0.1H61v0.1h0.1v0.1h0.1v0.1h0.2
				V79h0.1v0.1l0.2,0.1v0.1h-0.1v-0.1h-0.2v-0.1h-0.1V79h-0.1v-0.1h-0.1v-0.1H61v-0.1h-0.2v-0.1h-0.1v-0.1c-0.2-0.1-0.5-0.2-0.7-0.2
				c0,0,0,0.1,0.1,0.1h-0.2v-0.1c-0.1,0-0.2,0-0.3-0.1c-0.3-0.1-0.7-0.3-1.1-0.1v0.1h-0.2v0.1c-0.1,0-0.2,0-0.4,0.1v0.1
				c0.1,0.1,0.1,0,0.1,0.2h-0.1c-0.1-0.1-0.3-0.2-0.5-0.2c-0.1,0.3-0.2,0.3-0.4,0.5l0.1,0.1v0.1c0.3,0,0.5,0.1,0.8,0.1v0.1h0.3v0.1
				h0.2v0.1h0.3v0.1h0.2v0.1H59v0.1h0.2V80c0.1,0,0.2,0,0.4,0.1v0.1h0.1v0.1h0.2V80c0.1,0,0.2,0,0.2,0.1v0.1h0.1v0.1h0.2
				c0,0,0,0.1,0.1,0.1s0.2,0,0.3,0.1c0,0,0,0.1,0.1,0.1H61v0.1h0.1v0.1h0.1l0.1,0.1h0.1c0,0,0,0.1,0.1,0.1s0.2,0,0.2,0.1
				c0,0,0,0.1,0.1,0.1H62v0.1h0.1c0,0,0,0.1,0.1,0.1h0.1c0,0,0,0.1,0.1,0.1h0.1c0,0,0,0.1,0.1,0.1s0.2,0,0.2,0.1c0,0,0,0.1,0.1,0.1
				H63v0.1c0.1,0,0.1,0,0.2,0.1c0,0,0,0.1,0.1,0.1h0.1V82c0.1,0,0.1,0,0.2,0.1c0,0,0,0.1,0.1,0.1h0.1c0,0.1,0.1,0.1,0.1,0.2H64v0.1
				c0.1,0,0.1,0,0.2,0.1c0,0,0,0.1,0.1,0.1h0.1c0,0.1,0.1,0.1,0.1,0.2h0.1c0,0,0,0.1,0.1,0.1h0.1c0,0.1,0.1,0.1,0.1,0.2H65
				c0,0.1,0.1,0.1,0.1,0.2h0.1c0,0.1,0.1,0.1,0.1,0.2h0.1v0.1c0.1,0,0.1,0,0.2,0.1c0,0,0,0.1,0.1,0.1h0.1c0.1,0.1,0.1,0.2,0.2,0.2
				s0.1,0,0.2,0.1c0,0,0,0.1,0.1,0.1h0.1c0,0,0,0.1,0.1,0.1h0.1c0,0,0,0.1,0.1,0.1s0.1,0,0.2,0.1c0,0.1,0.1,0.1,0.1,0.2h0.1
				c0,0,0,0.1,0.1,0.1h0.1c0,0.1,0.1,0.1,0.1,0.2c0.1,0,0.2,0,0.2,0.1c0,0,0,0.1,0.1,0.1h0.1c0,0,0,0.1,0.1,0.1H68
				c0,0,0,0.1,0.1,0.1s0.2,0,0.2,0.1c0,0,0,0.1,0.1,0.1h0.1l0.1,0.1h0.1v0.1H69V86h0.1c0,0,0,0.1,0.1,0.1h0.2V86h0.1
				c0,0,0,0.1,0.1,0.1h0.2c0,0,0,0.1,0.1,0.1H70v0.1h0.1v0.1c0.1,0,0.2,0.1,0.4,0.1v0.1c0.1,0,0.2,0,0.3,0.1v0.1h0.1v0.1
				c0.1,0,0.2,0,0.4,0.1v0.1c0.1,0,0.2,0,0.2,0.1V87h0.2v0.1h0.2v0.1H72v0.1h0.2v0.1h0.2v0.1h0.1c13.2-8,22.1-22.5,22.1-39
				C94.6,37.9,90.9,28.1,84.8,20.4z"/>
			<path fill="#FFFFFF" d="M24.9,85.2L24.9,85.2L25,85c0,0,0.1,0,0.1-0.1v-0.1c0.1,0,0.1-0.1,0.2-0.1v-0.1c0.1-0.1,0.2-0.1,0.2-0.2
				v-0.1c0.1,0,0.1-0.1,0.2-0.1v-0.1c0.1,0,0.1-0.1,0.2-0.1v-0.1c0.1,0,0.1-0.1,0.2-0.1v-0.1c0,0,0.1,0,0.1-0.1s0-0.1,0.1-0.2h0.1
				v-0.1c0,0,0.1,0,0.1-0.1v-0.1c0,0,0.1,0,0.1-0.1v-0.1c0,0,0.1,0,0.1-0.1l0.1-0.2c0.1,0,0.1-0.1,0.2-0.1v-0.1
				c0.1,0,0.1-0.1,0.2-0.1v-0.1c0,0,0.1,0,0.1-0.1V82h0.1c0.1-0.2,0.3-0.3,0.4-0.5h0.1c0.1-0.2,0.2-0.4,0.4-0.5c0,0,0.1,0,0.1-0.1
				v-0.1c0.1-0.1,0.2-0.2,0.4-0.3v-0.1c0,0,0.1,0,0.1-0.1v-0.1c0.1-0.1,0.2-0.2,0.3-0.2v-0.1c0.1-0.1,0.2-0.1,0.2-0.2v-0.1
				c0,0,0.1,0,0.1-0.1v-0.1c0.1,0,0.1-0.1,0.2-0.1c0.1-0.2,0.2-0.3,0.2-0.5h-0.1c-0.1,0.1-0.2,0.2-0.4,0.2c0,0,0,0.1-0.1,0.1
				s-0.2,0-0.2,0.1c0,0,0,0.1-0.1,0.1h0l-0.1,0.1l-0.2,0.1c0,0,0,0.1-0.1,0.1s-0.2,0.1-0.4,0.1v0.1c-0.1,0-0.1,0-0.2,0.1
				c0,0,0,0.1-0.1,0.1s-0.2,0-0.2,0.1c0,0,0,0.1-0.1,0.1h-0.1c0,0,0,0.1-0.1,0.1h-0.1c0,0,0,0.1-0.1,0.1h-0.1c0,0,0,0.1-0.1,0.1
				h-0.1c0,0,0,0.1-0.1,0.1h-0.1c0,0,0,0.1-0.1,0.1h-0.1v0.1c-0.1,0-0.1,0-0.2,0.1c0,0,0,0.1-0.1,0.1h-0.1c0,0.1-0.1,0.1-0.1,0.2
				h-0.1v0.1c-0.1,0-0.1,0-0.2,0.1c0,0,0,0.1-0.1,0.1h-0.1c0,0.1-0.1,0.1-0.1,0.2h-0.1v0.1c-0.1,0-0.1,0-0.2,0.1c0,0,0,0.1-0.1,0.1
				h-0.1c-0.1,0.1-0.1,0.2-0.2,0.2h-0.1c0,0.1-0.1,0.1-0.1,0.2h-0.1c0,0,0,0.1-0.1,0.1h-0.1c0,0.1-0.1,0.1-0.1,0.2H24
				c0,0.1-0.1,0.1-0.1,0.2h-0.1c0,0.1-0.1,0.1-0.1,0.2h-0.1c0,0.1-0.1,0.1-0.1,0.2c-0.1,0-0.1,0-0.2,0.1c0,0,0,0.1-0.1,0.1
				s-0.1,0-0.2,0.1v0.1c-0.1,0-0.1,0-0.2,0.1v0.1h-0.1c0,0.1-0.1,0.1-0.1,0.2h-0.1l-0.2,0.2H22l-0.1,0.1c0.8,0.6,1.5,1.1,2.3,1.7
				c0.1-0.1,0.2-0.2,0.3-0.4h0.1C24.7,85.4,24.8,85.3,24.9,85.2z"/>
			<path fill="#FFFFFF" d="M49.2,93.6C49.2,93.6,49.1,93.6,49.2,93.6c-0.2-0.3-0.2-0.5-0.3-0.7h-0.1v-0.2c0,0-0.1,0-0.1-0.1v-0.2
				h-0.1c0-0.1-0.1-0.2-0.1-0.4h-0.1c0-0.1,0-0.2-0.1-0.2c0,0-0.1,0-0.1-0.1v-0.2c0,0-0.1,0-0.1-0.1v-0.1H48v-0.1l-0.1-0.1V91
				c0,0-0.1,0-0.1-0.1v-0.2h-0.1c0-0.1,0-0.1-0.1-0.2c0,0-0.1,0-0.1-0.1s0-0.2-0.1-0.2c0,0-0.1,0-0.1-0.1s0-0.2-0.1-0.2h-0.1
				c0-0.1,0-0.1-0.1-0.2c0,0-0.1,0-0.1-0.1v-0.1H47c0-0.1,0-0.1-0.1-0.2c0,0-0.1,0-0.1-0.1v-0.1c-0.1,0-0.1-0.1-0.2-0.1v0l-0.2-0.2
				v-0.1c-0.1-0.1-0.2-0.2-0.4-0.3v-0.1l-0.2-0.2V88h-0.1c-0.1-0.1-0.2-0.2-0.2-0.3h-0.1c0,0,0-0.1-0.1-0.1h-0.1c0,0,0-0.1-0.1-0.1
				h-0.2v-0.1c-0.1,0-0.2,0-0.2-0.1v-0.1h-0.1c0,0,0-0.1-0.1-0.1h-0.2c0,0,0-0.1-0.1-0.1H44v0h-0.1v-0.1h-0.1v-0.1h-0.1l-0.1-0.1
				h-0.1c0,0,0-0.1-0.1-0.1s-0.2-0.1-0.4-0.1c0,0,0-0.1-0.1-0.1s-0.2,0-0.2-0.1c0,0,0-0.1-0.1-0.1h-0.1L42.3,86h-0.1l0,0
				c-0.1,0-0.1,0-0.2-0.1c0,0,0-0.1-0.1-0.1s-0.2,0-0.2-0.1c0,0,0-0.1-0.1-0.1c-0.2-0.1-0.4-0.2-0.6-0.3v0.4c0.2,0.2,0,0.6,0.1,0.9
				h0.1V87h0.1c0,0.3,0,0.5,0.1,0.8h0.1v0.4h0.1v0.4h0.1c0,0.2,0,0.5,0.1,0.7h0.1v0.3H42V90h0.1v0.2h0.1v0.4H42V91l0,0v0.3h0.1v0.3
				c0.2,0.5,0.3,1,0.4,1.6c2.2,0.3,4.4,0.5,6.7,0.5C49.2,93.6,49.2,93.6,49.2,93.6z"/>
		</g>
	</g>
</g>
</svg>
